<svg id="svg" version="1.1" xmlns="http://www.w3.org/2000/svg" xmlns:xlink="http://www.w3.org/1999/xlink" width="400" height="306.640625" viewBox="0, 0, 400,306.640625"><g id="svgg"><path id="path0" d="M105.917 4.449 C 99.390 4.688,90.840 5.885,88.306 6.915 C 81.554 9.658,83.064 12.212,101.833 29.788 C 115.853 42.917,122.994 50.712,131.265 61.917 C 139.412 72.952,142.683 79.044,145.584 88.583 C 147.042 93.377,146.681 94.075,143.167 93.250 C 139.240 92.329,139.158 92.375,129.240 101.072 C 124.249 105.447,121.507 107.685,115.833 112.010 C 103.734 121.234,99.939 123.626,86.833 130.292 C 73.129 137.262,66.853 140.485,66.032 140.975 C 65.546 141.265,63.858 142.205,62.282 143.064 C 57.822 145.494,51.998 148.999,49.432 150.799 C 48.982 151.114,47.277 152.224,45.643 153.265 C 30.605 162.843,15.664 176.769,9.626 186.833 C 4.716 195.017,3.000 201.293,3.000 211.058 C 3.000 222.120,7.926 234.727,17.270 247.583 C 18.736 249.600,20.510 252.051,21.212 253.030 C 36.991 275.016,66.444 293.978,95.083 300.587 C 97.835 301.222,108.739 302.461,117.750 303.162 C 121.537 303.457,139.282 303.623,150.417 303.468 C 156.100 303.388,162.813 303.369,165.333 303.424 C 168.170 303.486,170.615 303.455,171.750 303.344 C 177.566 302.772,178.925 302.664,182.333 302.505 C 184.396 302.409,188.108 302.257,190.583 302.167 C 193.058 302.077,195.833 301.896,196.750 301.765 C 197.667 301.633,199.243 301.445,200.253 301.346 C 201.263 301.246,203.475 300.826,205.170 300.413 C 206.864 299.999,209.450 299.508,210.917 299.322 C 214.525 298.865,216.604 298.467,220.833 297.422 C 225.210 296.342,228.311 295.774,232.250 295.332 C 235.633 294.952,236.351 294.835,238.927 294.247 C 239.930 294.018,242.063 293.610,243.667 293.340 C 246.867 292.802,248.295 292.388,250.774 291.281 C 252.505 290.508,254.566 289.796,257.124 289.088 C 257.972 288.854,259.622 288.358,260.791 287.986 C 261.960 287.615,264.229 286.934,265.833 286.475 C 267.438 286.015,270.775 284.973,273.250 284.160 C 275.725 283.346,279.325 282.180,281.250 281.569 C 283.175 280.957,285.630 280.131,286.705 279.732 C 287.781 279.334,288.766 279.049,288.895 279.098 C 289.023 279.147,289.417 279.033,289.770 278.844 C 290.123 278.655,290.507 278.500,290.623 278.500 C 290.738 278.500,290.834 278.406,290.836 278.292 C 290.838 278.153,290.892 278.167,291.000 278.333 C 291.139 278.548,291.162 278.543,291.164 278.297 C 291.166 278.111,291.255 278.044,291.417 278.106 C 291.554 278.159,291.667 278.115,291.667 278.008 C 291.667 277.901,291.742 277.860,291.833 277.917 C 291.925 277.973,292.000 277.936,292.000 277.833 C 292.000 277.731,292.063 277.686,292.139 277.733 C 292.284 277.822,293.683 277.198,293.839 276.974 C 293.991 276.757,295.172 276.317,295.335 276.417 C 295.419 276.470,295.641 276.359,295.827 276.173 C 296.014 275.986,296.207 275.833,296.256 275.833 C 297.252 275.833,302.517 272.587,304.515 270.742 C 305.378 269.945,306.478 268.984,306.960 268.606 C 307.857 267.903,307.901 267.617,307.045 268.060 C 306.783 268.196,305.034 268.696,303.159 269.172 C 301.284 269.647,298.662 270.360,297.333 270.756 C 290.017 272.933,281.792 274.820,277.000 275.422 C 275.854 275.565,274.804 275.713,274.667 275.750 C 274.232 275.867,268.207 276.645,265.049 276.992 C 263.380 277.176,260.717 277.517,259.132 277.751 C 257.547 277.985,255.088 278.326,253.667 278.509 C 250.868 278.869,248.819 279.201,243.917 280.092 C 242.175 280.408,239.287 280.933,237.500 281.258 C 235.713 281.582,233.050 282.076,231.583 282.354 C 224.580 283.683,218.878 284.710,216.833 285.010 C 212.555 285.639,206.651 286.672,203.041 287.423 C 192.853 289.543,188.581 289.716,180.333 288.343 C 144.302 282.344,121.088 273.742,101.987 259.309 C 86.553 247.647,79.202 238.410,72.759 222.583 C 69.543 214.683,68.747 207.910,69.741 196.909 C 70.832 184.840,76.502 176.278,86.847 171.079 C 95.396 166.782,104.010 164.670,113.000 164.669 C 122.361 164.667,123.918 165.625,127.682 173.710 C 131.063 180.974,135.321 186.211,143.083 192.653 C 152.451 200.426,169.884 209.202,186.000 214.255 C 187.972 214.874,195.470 217.134,197.250 217.647 C 210.913 221.582,224.407 223.211,245.250 223.441 C 254.971 223.548,263.087 223.368,268.833 222.917 C 270.529 222.784,273.642 222.558,275.750 222.415 C 283.518 221.887,289.644 221.167,297.750 219.829 C 299.950 219.465,302.521 219.055,303.464 218.917 C 307.940 218.259,313.682 217.050,322.167 214.980 C 339.794 210.679,359.285 203.666,372.083 197.019 C 384.638 190.499,395.459 180.340,396.780 173.833 C 397.901 168.316,395.810 161.155,391.782 156.708 C 390.777 155.600,386.978 156.540,380.670 159.459 C 378.789 160.330,376.688 161.301,376.000 161.619 C 375.313 161.936,373.419 162.829,371.793 163.603 C 370.166 164.376,367.391 165.654,365.626 166.441 C 359.808 169.035,357.774 169.956,355.779 170.900 C 354.694 171.413,352.482 172.401,350.862 173.094 C 344.030 176.019,339.856 178.365,338.990 179.766 C 338.477 180.596,338.606 182.131,339.332 183.833 C 341.064 187.893,341.061 189.000,339.317 189.000 C 337.341 189.000,336.258 188.152,329.333 181.182 C 321.264 173.059,316.408 168.778,309.083 163.330 C 304.264 159.745,299.779 156.833,299.076 156.833 C 298.634 156.833,295.539 160.016,290.665 165.484 C 286.726 169.903,281.587 173.343,272.917 177.365 C 248.021 188.913,215.239 193.044,195.852 187.075 C 181.029 182.512,171.340 176.519,168.402 170.097 C 166.776 166.543,167.365 160.659,169.505 159.080 C 171.237 157.802,172.576 159.245,173.822 163.735 C 175.359 169.271,178.314 172.634,185.681 177.230 C 192.905 181.738,199.448 183.836,211.167 185.403 C 217.729 186.280,227.358 186.168,232.320 185.157 C 233.784 184.858,235.283 184.661,236.154 184.652 C 236.940 184.644,237.958 184.579,238.417 184.508 L 239.250 184.378 238.083 184.354 C 236.249 184.317,234.987 184.052,231.933 183.062 C 230.370 182.555,227.631 181.800,225.846 181.386 C 211.425 178.033,205.038 173.300,200.359 162.500 C 198.183 157.477,197.550 151.279,198.300 142.333 C 198.769 136.736,198.857 135.861,199.109 134.333 C 199.475 132.116,200.202 130.833,201.094 130.833 C 201.922 130.833,201.916 130.766,201.921 140.151 C 201.928 156.663,203.635 162.723,210.025 168.924 C 217.366 176.046,235.131 181.142,248.083 179.840 C 255.643 179.080,258.845 178.486,264.786 176.741 C 275.706 173.534,281.304 170.894,283.618 167.860 C 284.630 166.533,284.089 166.145,282.083 166.759 C 275.970 168.631,269.733 169.946,263.000 170.783 C 259.432 171.226,244.392 171.226,240.833 170.782 C 226.441 168.987,217.434 164.322,213.580 156.667 C 211.732 152.997,211.175 150.240,210.587 141.853 C 209.303 123.527,207.630 118.154,200.815 110.479 C 199.679 109.200,198.274 107.613,197.693 106.952 C 194.885 103.761,192.998 98.973,193.001 95.045 C 193.003 91.440,193.352 91.227,201.656 89.750 C 208.223 88.581,210.334 87.497,219.893 80.380 C 229.247 73.417,231.190 72.921,248.667 73.036 L 258.583 73.101 261.333 73.828 L 264.083 74.555 268.417 74.675 C 273.149 74.807,274.247 74.954,279.638 76.181 C 282.852 76.913,286.000 77.234,286.000 76.831 C 286.000 75.901,282.252 72.413,278.167 69.540 C 266.671 61.457,250.108 58.434,232.833 61.267 C 219.641 63.431,215.340 65.194,207.475 71.665 C 203.987 74.535,201.478 76.043,198.744 76.914 C 195.430 77.969,193.060 76.978,194.098 74.972 C 194.655 73.895,203.757 64.585,206.045 62.753 C 209.671 59.849,217.155 57.370,224.397 56.674 C 229.747 56.160,231.859 55.975,235.917 55.667 C 244.824 54.991,249.019 54.214,250.212 53.022 C 250.655 52.578,245.575 49.460,241.333 47.572 C 226.843 41.121,212.348 37.536,188.833 34.587 C 178.308 33.267,175.913 33.004,172.833 32.827 C 167.169 32.502,160.979 33.123,156.807 34.436 C 154.371 35.203,153.384 36.543,152.010 40.951 C 149.452 49.155,146.628 49.670,145.339 42.167 C 145.063 40.563,144.685 38.462,144.497 37.500 C 143.762 33.722,143.874 31.702,144.882 30.553 C 146.976 28.166,151.532 26.973,159.417 26.749 C 163.556 26.632,166.477 26.411,168.373 26.073 C 172.863 25.272,174.244 25.170,182.750 25.015 C 191.980 24.847,192.000 24.843,192.000 23.006 C 192.000 21.315,191.624 21.008,188.417 20.081 C 187.225 19.737,184.713 18.910,182.833 18.244 C 170.986 14.044,155.242 9.776,144.429 7.833 C 139.006 6.858,136.218 6.444,127.083 5.253 C 121.825 4.567,112.433 4.211,105.917 4.449 M216.859 13.847 C 213.083 14.174,211.440 16.371,210.823 21.917 C 210.099 28.432,213.941 31.961,228.500 38.154 C 231.112 39.266,233.512 40.294,233.833 40.439 C 234.154 40.584,235.466 41.152,236.748 41.700 C 241.519 43.743,249.182 47.647,253.583 50.276 C 254.958 51.098,256.796 52.171,257.667 52.661 C 258.537 53.151,260.975 54.579,263.083 55.833 C 270.201 60.069,275.912 63.449,276.750 63.922 C 279.308 65.363,283.477 67.904,285.000 68.950 C 285.962 69.611,287.531 70.686,288.485 71.338 L 290.220 72.524 290.769 71.970 C 291.070 71.666,292.077 70.104,293.006 68.500 C 296.038 63.266,298.314 60.134,302.997 54.750 C 309.573 47.190,310.372 46.208,310.896 45.046 C 311.326 44.093,311.289 44.043,308.998 42.512 C 305.074 39.890,304.260 39.641,296.583 38.727 C 283.677 37.189,276.806 38.238,267.500 43.167 C 263.129 45.482,262.373 45.680,261.487 44.736 C 260.468 43.651,261.547 36.880,263.769 30.417 C 265.332 25.870,265.289 26.070,264.814 25.557 C 263.130 23.743,260.892 22.828,252.083 20.353 C 250.433 19.890,247.808 19.102,246.250 18.602 C 236.845 15.588,230.138 14.177,224.000 13.921 C 222.762 13.870,221.037 13.798,220.167 13.763 C 219.296 13.727,217.807 13.765,216.859 13.847 M322.277 52.005 C 320.721 52.250,317.935 53.264,315.417 54.501 C 306.489 58.887,302.370 63.537,296.004 76.417 C 292.757 82.986,292.469 85.196,294.601 87.173 C 296.675 89.096,297.591 88.537,301.978 82.667 C 310.971 70.636,314.534 67.680,325.575 63.088 C 333.523 59.783,338.409 59.637,347.474 62.436 C 349.925 63.193,350.473 63.416,351.917 64.245 L 352.750 64.724 352.260 64.195 C 351.991 63.905,351.703 63.667,351.620 63.667 C 351.320 63.667,349.500 62.279,349.500 62.049 C 349.500 61.919,349.593 61.858,349.708 61.913 C 349.823 61.968,349.773 61.916,349.598 61.798 C 349.423 61.680,349.159 61.471,349.013 61.333 C 348.866 61.196,348.372 60.788,347.915 60.426 C 347.457 60.065,346.783 59.491,346.417 59.151 C 345.485 58.286,343.525 57.070,342.857 56.942 C 342.550 56.883,341.650 56.470,340.857 56.024 C 338.239 54.550,336.653 53.963,332.932 53.089 C 328.579 52.065,324.512 51.652,322.277 52.005 M339.965 64.790 C 340.541 64.823,341.441 64.823,341.965 64.790 C 342.488 64.757,342.017 64.730,340.917 64.730 C 339.817 64.731,339.388 64.758,339.965 64.790 M250.461 75.287 C 250.761 75.325,251.211 75.324,251.461 75.286 C 251.712 75.248,251.467 75.217,250.917 75.218 C 250.367 75.219,250.162 75.250,250.461 75.287 M254.877 75.286 C 255.131 75.325,255.506 75.324,255.711 75.284 C 255.916 75.244,255.708 75.213,255.250 75.214 C 254.792 75.216,254.624 75.248,254.877 75.286 M257.127 75.451 C 257.334 75.491,257.634 75.490,257.794 75.448 C 257.953 75.406,257.783 75.374,257.417 75.375 C 257.050 75.377,256.920 75.411,257.127 75.451 M346.213 75.456 C 346.652 75.490,347.327 75.490,347.713 75.455 C 348.100 75.420,347.742 75.392,346.917 75.392 C 346.092 75.393,345.775 75.422,346.213 75.456 M259.127 75.618 C 259.334 75.658,259.634 75.656,259.794 75.615 C 259.953 75.573,259.783 75.540,259.417 75.542 C 259.050 75.544,258.920 75.578,259.127 75.618 M260.711 75.786 C 260.964 75.825,261.339 75.824,261.544 75.784 C 261.749 75.744,261.542 75.713,261.083 75.714 C 260.625 75.716,260.457 75.748,260.711 75.786 M341.906 77.375 L 341.417 77.917 341.958 77.427 C 342.463 76.971,342.577 76.833,342.448 76.833 C 342.419 76.833,342.175 77.077,341.906 77.375 M313.328 77.958 L 312.417 78.917 313.375 78.006 C 313.902 77.505,314.333 77.073,314.333 77.047 C 314.333 76.924,314.174 77.068,313.328 77.958 M367.493 77.708 C 367.902 78.144,368.258 78.500,368.285 78.500 C 368.410 78.500,368.278 78.350,367.542 77.660 L 366.750 76.917 367.493 77.708 M368.893 78.448 C 369.061 78.648,369.158 78.879,369.108 78.960 C 369.058 79.041,369.771 79.852,370.692 80.762 C 371.613 81.672,372.822 82.942,373.378 83.583 C 375.152 85.628,376.667 87.234,376.667 87.070 C 376.667 86.982,376.329 86.559,375.917 86.128 C 375.504 85.698,375.167 85.260,375.167 85.155 C 375.167 84.898,371.994 81.484,371.843 81.577 C 371.777 81.618,371.319 81.242,370.826 80.742 C 370.332 80.242,370.024 79.833,370.141 79.833 C 370.257 79.833,370.302 79.750,370.239 79.649 C 370.156 79.514,370.094 79.515,370.010 79.651 C 369.934 79.773,369.766 79.700,369.519 79.436 C 369.291 79.194,369.217 79.011,369.331 78.973 C 369.435 78.938,369.311 78.725,369.053 78.497 C 368.680 78.167,368.648 78.157,368.893 78.448 M273.833 80.250 C 274.063 80.381,274.325 80.488,274.417 80.488 C 274.508 80.488,274.396 80.381,274.167 80.250 C 273.938 80.119,273.675 80.012,273.583 80.012 C 273.492 80.012,273.604 80.119,273.833 80.250 M308.333 82.917 C 307.928 83.329,307.635 83.667,307.681 83.667 C 307.726 83.667,308.095 83.329,308.500 82.917 C 308.905 82.504,309.199 82.167,309.153 82.167 C 309.107 82.167,308.738 82.504,308.333 82.917 M339.387 85.833 C 339.387 86.429,339.417 86.673,339.454 86.375 C 339.491 86.077,339.491 85.590,339.454 85.292 C 339.417 84.994,339.387 85.237,339.387 85.833 M363.583 85.500 C 363.941 85.867,364.272 86.167,364.318 86.167 C 364.363 86.167,364.108 85.867,363.750 85.500 C 363.392 85.133,363.062 84.833,363.016 84.833 C 362.970 84.833,363.225 85.133,363.583 85.500 M366.497 88.208 C 367.458 89.194,368.264 90.000,368.289 90.000 C 368.409 90.000,368.206 89.786,366.542 88.164 L 364.750 86.417 366.497 88.208 M286.167 88.417 C 286.478 88.737,286.770 89.000,286.815 89.000 C 286.861 89.000,286.644 88.737,286.333 88.417 C 286.022 88.096,285.730 87.833,285.685 87.833 C 285.639 87.833,285.856 88.096,286.167 88.417 M377.363 87.924 C 377.469 88.267,378.755 89.995,378.967 90.078 C 379.120 90.138,379.105 90.030,378.913 89.706 C 378.600 89.179,377.284 87.665,377.363 87.924 M303.917 88.667 C 303.774 88.942,303.696 89.167,303.741 89.167 C 303.787 89.167,303.941 88.942,304.083 88.667 C 304.226 88.392,304.304 88.167,304.259 88.167 C 304.213 88.167,304.059 88.392,303.917 88.667 M217.406 89.708 L 216.917 90.250 217.458 89.760 C 217.963 89.304,218.077 89.167,217.948 89.167 C 217.919 89.167,217.675 89.410,217.406 89.708 M289.417 91.500 C 290.606 92.692,291.616 93.667,291.662 93.667 C 291.708 93.667,290.772 92.692,289.583 91.500 C 288.394 90.308,287.384 89.333,287.338 89.333 C 287.292 89.333,288.228 90.308,289.417 91.500 M368.500 90.385 C 368.500 90.414,368.744 90.658,369.042 90.927 L 369.583 91.417 369.094 90.875 C 368.638 90.370,368.500 90.257,368.500 90.385 M379.333 90.667 C 379.509 90.996,379.833 91.125,379.833 90.867 C 379.833 90.691,379.471 90.333,379.294 90.333 C 379.218 90.333,379.235 90.483,379.333 90.667 M380.000 91.478 C 380.000 91.707,380.460 92.034,380.558 91.875 C 380.606 91.797,380.500 91.643,380.323 91.532 C 380.145 91.421,380.000 91.397,380.000 91.478 M339.392 92.833 C 339.392 93.612,339.420 93.931,339.455 93.542 C 339.490 93.152,339.490 92.515,339.455 92.125 C 339.420 91.735,339.392 92.054,339.392 92.833 M303.058 93.000 C 303.058 93.779,303.087 94.098,303.122 93.708 C 303.157 93.319,303.157 92.681,303.122 92.292 C 303.087 91.902,303.058 92.221,303.058 93.000 M380.769 92.574 C 380.826 92.722,381.031 92.927,381.224 93.031 C 381.563 93.212,381.566 93.205,381.315 92.827 C 381.005 92.360,380.619 92.181,380.769 92.574 M381.667 93.613 C 381.667 93.721,381.763 93.909,381.881 94.030 C 381.999 94.151,382.268 94.531,382.478 94.875 C 382.877 95.527,383.193 95.710,383.055 95.208 C 382.951 94.830,381.668 93.355,381.667 93.613 M292.167 94.385 C 292.167 94.414,292.410 94.658,292.708 94.927 L 293.250 95.417 292.760 94.875 C 292.304 94.370,292.167 94.257,292.167 94.385 M201.877 94.953 C 202.131 94.991,202.506 94.990,202.711 94.951 C 202.916 94.911,202.708 94.880,202.250 94.881 C 201.792 94.882,201.624 94.915,201.877 94.953 M262.288 94.954 C 262.584 94.990,263.109 94.991,263.455 94.955 C 263.800 94.919,263.558 94.889,262.917 94.888 C 262.275 94.887,261.992 94.917,262.288 94.954 M204.792 95.123 C 205.273 95.157,206.060 95.157,206.542 95.123 C 207.023 95.089,206.629 95.062,205.667 95.062 C 204.704 95.062,204.310 95.089,204.792 95.123 M339.548 95.750 C 339.549 96.208,339.581 96.376,339.620 96.123 C 339.658 95.869,339.657 95.494,339.617 95.289 C 339.578 95.084,339.546 95.292,339.548 95.750 M197.218 96.750 C 197.219 97.300,197.250 97.505,197.287 97.205 C 197.325 96.906,197.324 96.456,197.286 96.205 C 197.248 95.955,197.217 96.200,197.218 96.750 M383.839 96.750 C 383.836 96.842,384.134 97.367,384.500 97.917 C 384.866 98.467,385.166 98.785,385.166 98.625 C 385.166 98.465,385.092 98.333,385.000 98.333 C 384.908 98.333,384.833 98.185,384.833 98.003 C 384.833 97.674,383.847 96.432,383.839 96.750 M339.714 97.750 C 339.716 98.208,339.748 98.376,339.786 98.123 C 339.825 97.869,339.824 97.494,339.784 97.289 C 339.744 97.084,339.713 97.292,339.714 97.750 M385.917 99.667 C 386.059 99.942,386.251 100.167,386.343 100.167 C 386.435 100.167,386.344 99.942,386.140 99.667 C 385.937 99.392,385.745 99.167,385.714 99.167 C 385.683 99.167,385.774 99.392,385.917 99.667 M273.326 100.542 C 274.017 101.278,274.167 101.410,274.167 101.285 C 274.167 101.258,273.810 100.902,273.375 100.493 L 272.583 99.750 273.326 100.542 M366.833 100.385 C 366.833 100.414,367.077 100.658,367.375 100.927 L 367.917 101.417 367.427 100.875 C 366.971 100.370,366.833 100.257,366.833 100.385 M360.833 101.250 C 360.428 101.662,360.135 102.000,360.181 102.000 C 360.226 102.000,360.595 101.662,361.000 101.250 C 361.405 100.837,361.699 100.500,361.653 100.500 C 361.607 100.500,361.238 100.837,360.833 101.250 M201.833 105.750 C 202.701 106.621,203.448 107.333,203.493 107.333 C 203.539 107.333,202.867 106.621,202.000 105.750 C 201.133 104.879,200.386 104.167,200.340 104.167 C 200.294 104.167,200.966 104.879,201.833 105.750 M358.721 106.750 C 358.722 107.392,358.752 107.634,358.788 107.288 C 358.824 106.942,358.824 106.417,358.787 106.121 C 358.750 105.825,358.721 106.108,358.721 106.750 M370.039 106.333 C 370.039 106.654,370.073 106.785,370.115 106.625 C 370.157 106.465,370.157 106.202,370.115 106.042 C 370.073 105.881,370.039 106.013,370.039 106.333 M376.881 111.583 C 376.882 112.042,376.915 112.209,376.953 111.956 C 376.991 111.703,376.990 111.328,376.951 111.123 C 376.911 110.918,376.880 111.125,376.881 111.583 M392.737 117.750 C 392.737 119.675,392.762 120.440,392.791 119.449 C 392.821 118.459,392.821 116.884,392.791 115.949 C 392.761 115.015,392.737 115.825,392.737 117.750 M376.875 116.917 C 376.877 117.283,376.911 117.414,376.951 117.206 C 376.991 116.999,376.990 116.699,376.948 116.540 C 376.906 116.380,376.874 116.550,376.875 116.917 M281.375 118.250 C 281.377 118.617,281.411 118.747,281.451 118.540 C 281.491 118.332,281.490 118.032,281.448 117.873 C 281.406 117.714,281.374 117.883,281.375 118.250 M281.567 122.167 C 281.567 123.587,281.593 124.169,281.624 123.458 C 281.655 122.748,281.655 121.585,281.624 120.875 C 281.593 120.165,281.567 120.746,281.567 122.167 M305.705 121.667 C 305.705 121.987,305.740 122.119,305.782 121.958 C 305.823 121.798,305.823 121.535,305.782 121.375 C 305.740 121.215,305.705 121.346,305.705 121.667 M266.458 121.451 C 266.665 121.491,267.002 121.491,267.208 121.451 C 267.415 121.411,267.246 121.379,266.833 121.379 C 266.421 121.379,266.252 121.411,266.458 121.451 M264.491 122.625 L 263.917 123.250 264.542 122.676 C 265.123 122.141,265.243 122.000,265.116 122.000 C 265.088 122.000,264.807 122.281,264.491 122.625 M305.879 123.333 C 305.879 123.746,305.911 123.915,305.951 123.708 C 305.991 123.502,305.991 123.165,305.951 122.958 C 305.911 122.752,305.879 122.921,305.879 123.333 M310.539 125.167 C 310.539 125.487,310.573 125.619,310.615 125.458 C 310.657 125.298,310.657 125.035,310.615 124.875 C 310.573 124.715,310.539 124.846,310.539 125.167 M306.063 126.667 C 306.063 127.721,306.090 128.152,306.123 127.625 C 306.156 127.098,306.156 126.235,306.123 125.708 C 306.090 125.181,306.063 125.612,306.063 126.667 M281.381 126.917 C 281.382 127.375,281.415 127.543,281.453 127.289 C 281.491 127.036,281.490 126.661,281.451 126.456 C 281.411 126.251,281.380 126.458,281.381 126.917 M310.712 127.000 C 310.712 127.412,310.745 127.581,310.784 127.375 C 310.824 127.169,310.824 126.831,310.784 126.625 C 310.745 126.419,310.712 126.587,310.712 127.000 M273.218 128.417 C 273.219 128.967,273.250 129.172,273.287 128.872 C 273.325 128.572,273.324 128.122,273.286 127.872 C 273.248 127.622,273.217 127.867,273.218 128.417 M394.413 128.365 C 394.048 128.657,392.887 129.730,391.833 130.749 C 384.082 138.243,362.869 145.845,344.417 147.741 C 334.109 148.801,330.397 148.773,324.167 147.589 C 321.738 147.128,321.607 147.096,317.000 145.865 C 309.818 143.945,309.630 143.949,308.151 146.055 C 306.158 148.893,306.341 150.312,309.136 153.702 C 314.512 160.220,323.248 165.871,332.500 168.814 C 340.528 171.368,346.982 170.025,361.250 162.831 C 370.605 158.114,372.833 156.636,372.833 155.146 C 372.833 153.651,367.587 153.856,353.250 155.912 C 338.607 158.012,326.046 158.297,321.876 156.625 C 320.777 156.184,320.640 155.954,321.313 155.675 C 322.318 155.259,323.188 155.165,327.583 154.998 C 339.968 154.530,352.424 152.813,359.833 150.555 C 379.894 144.439,387.359 141.282,392.596 136.698 C 395.495 134.161,396.342 131.987,395.676 128.792 C 395.445 127.685,395.316 127.641,394.413 128.365 M281.209 128.917 C 281.211 129.283,281.245 129.414,281.285 129.206 C 281.324 128.999,281.323 128.699,281.281 128.540 C 281.239 128.380,281.207 128.550,281.209 128.917 M355.875 128.948 C 356.035 128.990,356.298 128.990,356.458 128.948 C 356.619 128.906,356.488 128.872,356.167 128.872 C 355.846 128.872,355.715 128.906,355.875 128.948 M357.627 128.951 C 357.834 128.991,358.134 128.990,358.294 128.948 C 358.453 128.906,358.283 128.874,357.917 128.875 C 357.550 128.877,357.420 128.911,357.627 128.951 M305.875 129.917 C 305.877 130.283,305.911 130.414,305.951 130.206 C 305.991 129.999,305.990 129.699,305.948 129.540 C 305.906 129.380,305.874 129.550,305.875 129.917 M261.039 131.500 C 261.039 131.821,261.073 131.952,261.115 131.792 C 261.157 131.631,261.157 131.369,261.115 131.208 C 261.073 131.048,261.039 131.179,261.039 131.500 M305.705 131.667 C 305.705 131.987,305.740 132.119,305.782 131.958 C 305.823 131.798,305.823 131.535,305.782 131.375 C 305.740 131.215,305.705 131.346,305.705 131.667 M260.896 134.583 C 260.896 135.592,260.924 135.983,260.957 135.452 C 260.990 134.922,260.990 134.097,260.956 133.619 C 260.922 133.141,260.895 133.575,260.896 134.583 M267.747 136.875 L 266.250 138.417 267.792 136.920 C 269.224 135.530,269.409 135.333,269.288 135.333 C 269.263 135.333,268.570 136.027,267.747 136.875 M313.500 137.052 C 313.500 137.081,313.744 137.325,314.042 137.594 L 314.583 138.083 314.094 137.542 C 313.638 137.037,313.500 136.923,313.500 137.052 M241.714 143.250 C 241.716 143.708,241.748 143.876,241.786 143.623 C 241.825 143.369,241.824 142.994,241.784 142.789 C 241.744 142.584,241.713 142.792,241.714 143.250 M329.794 144.118 C 330.001 144.158,330.301 144.156,330.460 144.115 C 330.620 144.073,330.450 144.040,330.083 144.042 C 329.717 144.044,329.586 144.078,329.794 144.118 M338.877 144.120 C 339.131 144.158,339.506 144.157,339.711 144.117 C 339.916 144.078,339.708 144.046,339.250 144.048 C 338.792 144.049,338.624 144.081,338.877 144.120 M332.958 144.291 C 333.806 144.321,335.194 144.321,336.042 144.291 C 336.890 144.261,336.196 144.236,334.500 144.236 C 332.804 144.236,332.110 144.261,332.958 144.291 M273.495 146.125 L 272.417 147.250 273.542 146.171 C 274.587 145.170,274.743 145.000,274.620 145.000 C 274.595 145.000,274.088 145.506,273.495 146.125 M241.712 146.833 C 241.712 147.246,241.745 147.415,241.784 147.208 C 241.824 147.002,241.824 146.665,241.784 146.458 C 241.745 146.252,241.712 146.421,241.712 146.833 M294.664 153.292 L 292.750 155.250 294.708 153.336 C 295.785 152.283,296.667 151.402,296.667 151.378 C 296.667 151.258,296.442 151.473,294.664 153.292 M217.917 152.833 C 218.059 153.108,218.213 153.333,218.259 153.333 C 218.304 153.333,218.226 153.108,218.083 152.833 C 217.941 152.558,217.787 152.333,217.741 152.333 C 217.696 152.333,217.774 152.558,217.917 152.833 M120.085 154.834 C 122.089 155.596,117.586 156.868,107.417 158.414 C 103.595 158.995,95.652 160.353,93.250 160.835 C 91.875 161.112,90.431 161.401,90.042 161.479 C 89.134 161.660,89.151 161.550,90.171 160.595 C 91.732 159.135,93.742 158.447,100.167 157.176 C 110.569 155.117,118.405 154.195,120.085 154.834 M252.042 154.948 C 252.202 154.990,252.465 154.990,252.625 154.948 C 252.785 154.906,252.654 154.872,252.333 154.872 C 252.012 154.872,251.881 154.906,252.042 154.948 M249.296 155.122 C 249.688 155.157,250.288 155.157,250.629 155.121 C 250.971 155.085,250.650 155.057,249.917 155.057 C 249.183 155.058,248.904 155.087,249.296 155.122 M221.167 157.250 C 221.757 157.846,222.278 158.333,222.324 158.333 C 222.370 158.333,221.924 157.846,221.333 157.250 C 220.743 156.654,220.222 156.167,220.176 156.167 C 220.130 156.167,220.576 156.654,221.167 157.250 M245.627 168.118 C 245.834 168.158,246.134 168.156,246.294 168.115 C 246.453 168.073,246.283 168.040,245.917 168.042 C 245.550 168.044,245.420 168.078,245.627 168.118 M257.958 168.118 C 258.165 168.157,258.502 168.157,258.708 168.118 C 258.915 168.078,258.746 168.045,258.333 168.045 C 257.921 168.045,257.752 168.078,257.958 168.118 M247.292 168.284 C 247.498 168.324,247.835 168.324,248.042 168.284 C 248.248 168.245,248.079 168.212,247.667 168.212 C 247.254 168.212,247.085 168.245,247.292 168.284 M255.375 168.286 C 255.627 168.324,256.040 168.324,256.292 168.286 C 256.544 168.248,256.337 168.217,255.833 168.217 C 255.329 168.217,255.123 168.248,255.375 168.286 M250.375 168.457 C 250.994 168.489,252.006 168.489,252.625 168.457 C 253.244 168.425,252.737 168.399,251.500 168.399 C 250.262 168.399,249.756 168.425,250.375 168.457 M342.073 243.042 L 341.583 243.583 342.125 243.094 C 342.630 242.638,342.743 242.500,342.615 242.500 C 342.586 242.500,342.342 242.744,342.073 243.042 M188.908 262.986 C 188.960 263.070,188.908 263.176,188.793 263.223 C 188.678 263.269,188.761 263.313,188.979 263.320 C 189.312 263.331,189.341 263.294,189.167 263.083 C 188.940 262.810,188.757 262.741,188.908 262.986 M243.458 268.118 C 243.665 268.157,244.002 268.157,244.208 268.118 C 244.415 268.078,244.246 268.045,243.833 268.045 C 243.421 268.045,243.252 268.078,243.458 268.118 " stroke="none" fill="#538536" fill-rule="evenodd"></path><path id="path1" d="M100.417 0.183 C 99.775 0.255,97.712 0.388,95.833 0.478 C 90.297 0.744,85.628 1.312,83.417 1.990 C 80.919 2.755,80.059 3.000,79.864 3.000 C 78.992 3.000,75.515 6.129,74.844 7.517 C 73.949 9.370,74.404 11.732,76.036 13.696 C 76.518 14.276,77.025 14.898,77.164 15.080 C 78.184 16.412,85.678 23.500,86.066 23.500 C 86.114 23.500,86.362 23.690,86.618 23.922 C 86.874 24.154,87.946 25.015,89.000 25.837 C 90.054 26.658,91.067 27.466,91.250 27.633 C 91.433 27.799,91.881 28.156,92.245 28.426 C 92.609 28.696,93.846 29.694,94.995 30.644 C 96.144 31.594,97.373 32.607,97.728 32.894 C 100.170 34.875,102.329 36.877,108.020 42.443 C 111.504 45.849,116.875 51.589,119.000 54.175 C 119.321 54.565,119.931 55.267,120.356 55.734 C 122.072 57.621,123.950 59.772,124.196 60.132 C 124.340 60.342,124.804 60.880,125.229 61.328 C 125.653 61.776,126.000 62.220,126.000 62.315 C 126.000 62.410,126.150 62.569,126.333 62.667 C 126.517 62.765,126.667 62.948,126.667 63.074 C 126.667 63.201,126.892 63.493,127.167 63.724 C 127.442 63.956,127.667 64.198,127.667 64.262 C 127.667 64.326,128.287 65.062,129.045 65.897 C 129.804 66.733,130.643 67.717,130.911 68.083 C 131.179 68.450,131.496 68.810,131.616 68.883 C 131.735 68.957,131.833 69.107,131.833 69.218 C 131.833 69.328,132.172 69.831,132.586 70.335 C 133.301 71.203,135.167 74.167,135.167 74.432 C 135.167 74.501,135.272 74.675,135.400 74.820 C 136.559 76.127,137.391 81.016,136.760 82.806 C 136.627 83.181,136.434 83.959,136.329 84.535 C 136.124 85.667,136.131 85.647,135.289 87.500 C 134.977 88.188,134.666 88.975,134.598 89.250 C 134.530 89.525,134.218 90.138,133.904 90.612 C 133.590 91.085,133.333 91.519,133.333 91.574 C 133.333 91.831,130.626 94.603,128.359 96.667 C 127.604 97.354,126.527 98.348,125.967 98.875 C 125.406 99.402,124.874 99.833,124.784 99.833 C 124.694 99.833,124.050 100.378,123.352 101.044 C 122.654 101.709,121.577 102.628,120.958 103.085 C 120.340 103.543,119.833 103.973,119.833 104.042 C 119.833 104.110,119.759 104.167,119.669 104.167 C 119.521 104.167,116.661 106.247,115.417 107.260 C 114.875 107.701,114.070 108.292,112.250 109.584 C 110.203 111.038,109.723 111.397,108.557 112.342 C 107.930 112.850,107.135 113.438,106.792 113.647 C 106.448 113.856,106.167 114.096,106.167 114.180 C 106.167 114.264,106.081 114.333,105.975 114.333 C 105.870 114.333,105.477 114.584,105.100 114.891 C 104.724 115.197,104.234 115.545,104.010 115.663 C 103.787 115.782,103.525 115.946,103.427 116.029 C 102.994 116.397,99.837 118.413,99.083 118.803 C 98.625 119.040,97.732 119.575,97.100 119.992 C 96.467 120.409,95.461 121.066,94.864 121.452 C 94.268 121.838,93.548 122.345,93.265 122.579 C 92.474 123.234,89.973 124.833,89.740 124.833 C 89.627 124.833,89.143 125.096,88.667 125.417 C 88.190 125.738,87.751 126.001,87.692 126.002 C 87.632 126.003,87.166 126.216,86.656 126.474 C 86.146 126.733,85.584 126.994,85.406 127.054 C 85.229 127.114,84.708 127.391,84.250 127.669 C 83.792 127.947,83.060 128.337,82.625 128.535 C 82.190 128.733,81.833 128.957,81.833 129.031 C 81.833 129.106,81.693 129.167,81.522 129.167 C 81.352 129.167,81.019 129.318,80.784 129.503 C 80.548 129.688,79.854 130.029,79.240 130.260 C 78.627 130.491,77.815 130.889,77.437 131.145 C 77.059 131.400,76.412 131.741,76.000 131.902 C 75.040 132.276,72.175 134.108,71.667 134.674 C 71.305 135.075,69.916 135.855,65.750 137.995 C 64.558 138.607,63.283 139.292,62.917 139.518 C 62.550 139.744,62.040 140.020,61.783 140.131 C 61.527 140.243,60.889 140.609,60.367 140.945 C 59.844 141.281,59.042 141.755,58.583 141.999 C 58.125 142.242,57.600 142.523,57.417 142.622 C 57.233 142.721,56.207 143.227,55.135 143.748 C 54.064 144.268,53.014 144.836,52.802 145.010 C 52.180 145.522,52.126 145.561,51.167 146.191 C 50.663 146.522,49.594 147.111,48.792 147.500 C 47.990 147.890,47.333 148.274,47.333 148.354 C 47.333 148.434,47.230 148.500,47.104 148.500 C 46.977 148.500,46.774 148.620,46.652 148.767 C 46.530 148.914,46.277 149.103,46.090 149.187 C 45.595 149.407,42.783 151.312,42.060 151.917 C 40.896 152.889,36.679 155.976,33.635 158.083 C 32.973 158.542,31.941 159.375,31.341 159.936 C 30.026 161.165,26.871 163.808,25.298 164.998 C 24.997 165.226,24.074 166.051,23.249 166.832 C 22.423 167.612,21.075 168.850,20.254 169.583 C 15.580 173.758,8.333 181.204,8.333 181.834 C 8.333 181.908,7.996 182.317,7.583 182.741 C 7.171 183.166,6.833 183.584,6.833 183.672 C 6.833 183.759,6.569 184.177,6.246 184.600 C 5.923 185.023,5.501 185.718,5.308 186.143 C 5.115 186.569,4.751 187.179,4.499 187.500 C 4.247 187.821,3.726 188.758,3.341 189.583 C 2.384 191.633,2.368 191.673,2.239 192.327 C 2.176 192.644,1.993 193.169,1.831 193.493 C 1.670 193.818,1.413 194.983,1.260 196.083 C 1.107 197.183,0.917 198.308,0.837 198.583 C 0.092 201.144,-0.380 218.284,0.236 220.428 C 0.366 220.880,0.519 221.588,0.576 222.000 C 0.738 223.176,1.029 224.234,1.239 224.417 C 1.345 224.508,1.514 225.033,1.615 225.583 C 1.819 226.698,2.694 229.059,3.653 231.083 C 4.001 231.817,4.427 232.754,4.601 233.166 C 4.775 233.578,5.329 234.374,5.833 234.936 C 6.380 235.545,6.907 236.351,7.139 236.934 C 7.353 237.471,7.774 238.250,8.074 238.664 C 8.373 239.078,8.752 239.773,8.915 240.208 C 9.078 240.644,9.277 241.000,9.356 241.000 C 9.435 241.000,9.500 241.090,9.500 241.199 C 9.500 241.309,9.676 241.590,9.892 241.824 C 10.107 242.058,10.413 242.585,10.571 242.994 C 10.730 243.403,11.116 244.022,11.430 244.370 C 11.743 244.717,12.000 245.116,12.000 245.257 C 12.000 245.827,12.771 246.984,13.939 248.169 C 15.227 249.475,15.667 250.127,15.667 250.727 C 15.667 250.923,15.854 251.301,16.084 251.568 C 16.313 251.834,16.500 252.123,16.500 252.210 C 16.500 252.297,16.846 252.753,17.269 253.223 C 17.692 253.693,18.096 254.232,18.168 254.420 C 18.239 254.607,18.579 255.129,18.922 255.579 C 19.816 256.750,19.860 256.804,20.458 257.459 C 20.756 257.784,21.000 258.137,21.000 258.242 C 21.000 258.346,21.112 258.579,21.249 258.758 C 22.368 260.221,22.923 260.929,23.005 261.000 C 23.058 261.046,23.273 261.367,23.483 261.713 C 23.694 262.059,23.952 262.434,24.058 262.546 C 24.164 262.658,24.697 263.313,25.243 264.000 C 27.024 266.240,32.580 271.759,35.732 274.417 C 36.167 274.783,36.651 275.196,36.808 275.333 C 36.964 275.471,37.570 275.958,38.155 276.417 C 38.739 276.875,39.525 277.515,39.900 277.839 C 40.276 278.163,40.883 278.648,41.250 278.916 C 41.617 279.184,41.992 279.490,42.083 279.596 C 42.175 279.703,42.700 280.101,43.250 280.482 C 43.800 280.863,45.038 281.732,46.000 282.413 C 46.962 283.094,48.200 283.930,48.750 284.270 C 49.300 284.611,50.324 285.289,51.025 285.778 C 51.727 286.267,52.377 286.667,52.470 286.667 C 52.563 286.667,52.664 286.727,52.694 286.800 C 52.748 286.930,55.866 288.810,57.465 289.676 C 57.897 289.910,58.625 290.340,59.083 290.631 C 59.542 290.922,60.008 291.162,60.120 291.163 C 60.232 291.165,60.958 291.542,61.734 292.000 C 62.510 292.458,63.195 292.833,63.256 292.833 C 63.541 292.833,64.662 293.464,65.390 294.035 C 65.863 294.405,66.380 294.667,66.640 294.667 C 66.884 294.667,67.604 294.930,68.240 295.251 C 68.877 295.571,69.484 295.833,69.591 295.833 C 69.697 295.833,70.146 296.026,70.590 296.262 C 71.033 296.497,71.963 296.873,72.656 297.096 C 73.349 297.319,74.067 297.570,74.250 297.654 C 74.433 297.738,74.825 297.848,75.120 297.898 C 75.415 297.948,75.978 298.193,76.370 298.441 C 77.175 298.949,78.244 299.377,79.833 299.825 C 80.429 299.993,81.479 300.318,82.167 300.547 C 82.854 300.777,84.429 301.203,85.667 301.494 C 86.904 301.786,88.104 302.102,88.333 302.197 C 88.563 302.292,89.275 302.470,89.917 302.593 C 90.558 302.715,91.383 302.892,91.750 302.987 C 92.117 303.081,92.786 303.161,93.238 303.163 C 93.690 303.165,94.290 303.238,94.572 303.324 C 94.853 303.411,96.039 303.551,97.207 303.636 C 98.375 303.721,99.425 303.868,99.540 303.963 C 100.342 304.626,114.402 305.208,130.583 305.250 C 137.183 305.267,147.683 305.331,153.917 305.393 C 161.177 305.465,165.879 305.444,167.000 305.336 C 167.962 305.243,170.737 305.098,173.167 305.013 C 175.596 304.927,177.696 304.815,177.833 304.762 C 177.971 304.709,180.428 304.600,183.294 304.518 C 186.380 304.431,188.589 304.300,188.711 304.199 C 188.824 304.105,189.479 303.980,190.167 303.920 C 190.854 303.861,192.354 303.703,193.500 303.569 C 194.646 303.435,196.671 303.216,198.000 303.081 C 201.331 302.744,207.076 301.587,207.608 301.146 C 207.713 301.059,208.425 300.923,209.191 300.843 C 209.957 300.763,210.883 300.618,211.250 300.520 C 211.617 300.422,212.517 300.333,213.250 300.323 C 213.983 300.313,214.996 300.246,215.500 300.173 C 219.132 299.650,220.364 299.432,221.167 299.167 C 221.671 299.001,222.683 298.816,223.417 298.757 C 224.150 298.697,225.237 298.546,225.833 298.420 C 226.429 298.294,227.243 298.146,227.643 298.091 C 228.042 298.036,228.790 297.843,229.304 297.662 C 229.818 297.481,230.480 297.333,230.776 297.333 C 231.072 297.333,231.355 297.267,231.405 297.186 C 231.455 297.105,231.928 296.985,232.456 296.919 C 232.984 296.853,233.625 296.691,233.880 296.559 C 234.135 296.428,234.415 296.364,234.502 296.418 C 234.589 296.472,234.942 296.325,235.286 296.091 C 235.825 295.725,236.091 295.667,237.222 295.667 C 238.015 295.667,238.740 295.571,239.058 295.425 C 239.347 295.292,240.108 295.106,240.750 295.012 C 242.032 294.825,243.267 294.536,243.688 294.325 C 243.837 294.251,244.249 294.137,244.604 294.072 C 244.960 294.008,245.453 293.853,245.700 293.728 C 245.948 293.602,246.270 293.500,246.418 293.500 C 246.565 293.500,247.017 293.349,247.423 293.164 C 247.829 292.979,248.518 292.784,248.955 292.731 C 249.392 292.678,250.162 292.483,250.667 292.299 C 251.171 292.115,252.071 291.892,252.667 291.804 C 253.262 291.717,253.900 291.577,254.083 291.494 C 254.375 291.363,255.631 291.027,257.917 290.469 C 258.283 290.379,258.883 290.270,259.250 290.227 C 259.617 290.183,260.217 290.007,260.583 289.837 C 261.383 289.464,265.041 288.247,266.356 287.916 C 266.873 287.786,267.548 287.568,267.856 287.432 C 268.164 287.296,268.979 287.021,269.667 286.820 C 270.354 286.620,270.993 286.397,271.086 286.324 C 271.178 286.251,271.624 286.098,272.075 285.985 C 272.527 285.871,273.313 285.566,273.823 285.308 C 274.333 285.049,274.938 284.836,275.167 284.834 C 275.396 284.833,275.775 284.731,276.008 284.610 C 276.242 284.488,276.693 284.346,277.010 284.294 C 277.718 284.179,280.296 283.178,281.383 282.596 C 281.823 282.360,282.536 282.079,282.967 281.971 C 283.397 281.864,284.511 281.414,285.442 280.971 C 286.372 280.529,287.216 280.167,287.317 280.167 C 287.418 280.167,287.500 280.092,287.500 280.000 C 287.500 279.908,287.631 279.833,287.792 279.832 C 287.952 279.832,288.297 279.690,288.557 279.519 C 289.476 278.913,288.671 279.004,286.721 279.726 C 285.637 280.128,283.175 280.957,281.250 281.569 C 279.325 282.180,275.725 283.346,273.250 284.160 C 270.775 284.973,267.438 286.015,265.833 286.475 C 264.229 286.934,261.960 287.615,260.791 287.986 C 259.622 288.358,257.972 288.854,257.124 289.088 C 254.566 289.796,252.505 290.508,250.774 291.281 C 248.295 292.388,246.867 292.802,243.667 293.340 C 242.063 293.610,239.930 294.018,238.927 294.247 C 236.351 294.835,235.633 294.952,232.250 295.332 C 228.311 295.774,225.210 296.342,220.833 297.422 C 216.604 298.467,214.525 298.865,210.917 299.322 C 209.450 299.508,206.864 299.999,205.170 300.413 C 203.475 300.826,201.263 301.246,200.253 301.346 C 199.243 301.445,197.667 301.633,196.750 301.765 C 195.833 301.896,193.058 302.077,190.583 302.167 C 188.108 302.257,184.396 302.409,182.333 302.505 C 178.925 302.664,177.566 302.772,171.750 303.344 C 170.615 303.455,168.170 303.486,165.333 303.424 C 162.813 303.369,156.100 303.388,150.417 303.468 C 139.282 303.623,121.537 303.457,117.750 303.162 C 108.739 302.461,97.835 301.222,95.083 300.587 C 66.444 293.978,36.991 275.016,21.212 253.030 C 20.510 252.051,18.736 249.600,17.270 247.583 C 2.462 227.211,-0.982 207.596,7.333 191.000 C 10.623 184.433,13.450 180.694,20.322 173.823 C 29.159 164.987,36.146 159.314,45.643 153.265 C 47.277 152.224,48.982 151.114,49.432 150.799 C 51.998 148.999,57.822 145.494,62.282 143.064 C 63.858 142.205,65.546 141.265,66.032 140.975 C 66.853 140.485,73.129 137.262,86.833 130.292 C 97.561 124.835,103.038 121.570,109.583 116.729 C 117.876 110.595,123.360 106.228,129.240 101.072 C 139.158 92.375,139.240 92.329,143.167 93.250 C 146.681 94.075,147.042 93.377,145.584 88.583 C 142.683 79.044,139.412 72.952,131.265 61.917 C 122.994 50.712,115.853 42.917,101.833 29.788 C 84.304 13.373,82.190 10.316,86.588 7.739 C 91.840 4.661,111.299 3.412,126.417 5.182 C 141.550 6.955,151.599 8.923,165.583 12.855 C 171.915 14.635,178.130 16.577,182.833 18.244 C 184.713 18.910,187.225 19.737,188.417 20.081 C 191.624 21.008,192.000 21.315,192.000 23.006 C 192.000 24.843,191.980 24.847,182.750 25.015 C 174.244 25.170,172.863 25.272,168.373 26.073 C 166.477 26.411,163.556 26.632,159.417 26.749 C 151.532 26.973,146.976 28.166,144.882 30.553 C 143.874 31.702,143.762 33.722,144.497 37.500 C 144.685 38.462,145.063 40.563,145.339 42.167 C 146.628 49.670,149.452 49.155,152.010 40.951 C 153.384 36.543,154.371 35.203,156.807 34.436 C 160.979 33.123,167.169 32.502,172.833 32.827 C 175.913 33.004,178.308 33.267,188.833 34.587 C 195.998 35.486,210.053 37.718,213.574 38.516 C 227.710 41.721,243.117 47.480,248.764 51.669 C 250.579 53.015,250.577 52.967,248.817 53.686 C 246.299 54.714,244.177 55.040,235.917 55.667 C 231.859 55.975,229.747 56.160,224.397 56.674 C 217.155 57.370,209.671 59.849,206.045 62.753 C 203.757 64.585,194.655 73.895,194.098 74.972 C 193.060 76.978,195.430 77.969,198.744 76.914 C 201.478 76.043,203.987 74.535,207.475 71.665 C 215.340 65.194,219.641 63.431,232.833 61.267 C 250.108 58.434,266.671 61.457,278.167 69.540 C 282.252 72.413,286.000 75.901,286.000 76.831 C 286.000 77.234,282.852 76.913,279.638 76.181 C 274.247 74.954,273.149 74.807,268.417 74.675 L 264.083 74.555 261.333 73.828 L 258.583 73.101 248.667 73.036 C 231.190 72.921,229.247 73.417,219.893 80.380 C 210.334 87.497,208.223 88.581,201.656 89.750 C 193.352 91.227,193.003 91.440,193.001 95.045 C 192.998 98.973,194.885 103.761,197.693 106.952 C 198.274 107.613,199.679 109.200,200.815 110.479 C 207.630 118.154,209.303 123.527,210.587 141.853 C 211.175 150.240,211.732 152.997,213.580 156.667 C 217.434 164.322,226.441 168.987,240.833 170.782 C 244.392 171.226,259.432 171.226,263.000 170.783 C 269.733 169.946,275.970 168.631,282.083 166.759 C 284.089 166.145,284.630 166.533,283.618 167.860 C 281.304 170.894,275.706 173.534,264.786 176.741 C 258.845 178.486,255.643 179.080,248.083 179.840 C 235.131 181.142,217.366 176.046,210.025 168.924 C 203.635 162.723,201.928 156.663,201.921 140.151 C 201.916 130.766,201.922 130.833,201.094 130.833 C 200.202 130.833,199.475 132.116,199.109 134.333 C 198.857 135.861,198.769 136.736,198.300 142.333 C 197.550 151.279,198.183 157.477,200.359 162.500 C 205.038 173.300,211.425 178.033,225.846 181.386 C 227.631 181.800,230.370 182.555,231.933 183.062 C 234.987 184.052,236.249 184.317,238.083 184.354 L 239.250 184.378 238.417 184.508 C 237.958 184.579,236.940 184.644,236.154 184.652 C 235.283 184.661,233.784 184.858,232.320 185.157 C 227.358 186.168,217.729 186.280,211.167 185.403 C 199.448 183.836,192.905 181.738,185.681 177.230 C 178.314 172.634,175.359 169.271,173.822 163.735 C 172.576 159.245,171.237 157.802,169.505 159.080 C 167.365 160.659,166.776 166.543,168.402 170.097 C 171.340 176.519,181.029 182.512,195.852 187.075 C 215.239 193.044,248.021 188.913,272.917 177.365 C 281.587 173.343,286.726 169.903,290.665 165.484 C 295.539 160.016,298.634 156.833,299.076 156.833 C 299.779 156.833,304.264 159.745,309.083 163.330 C 316.408 168.778,321.264 173.059,329.333 181.182 C 336.258 188.152,337.341 189.000,339.317 189.000 C 341.061 189.000,341.064 187.893,339.332 183.833 C 338.606 182.131,338.477 180.596,338.990 179.766 C 339.856 178.365,344.030 176.019,350.862 173.094 C 352.482 172.401,354.694 171.413,355.779 170.900 C 357.774 169.956,359.808 169.035,365.626 166.441 C 367.391 165.654,370.166 164.376,371.793 163.603 C 373.419 162.829,375.313 161.936,376.000 161.619 C 376.688 161.301,378.789 160.330,380.670 159.459 C 386.978 156.540,390.777 155.600,391.782 156.708 C 395.810 161.155,397.901 168.316,396.780 173.833 C 395.459 180.340,384.638 190.499,372.083 197.019 C 359.285 203.666,339.794 210.679,322.167 214.980 C 313.682 217.050,307.940 218.259,303.464 218.917 C 302.521 219.055,299.950 219.465,297.750 219.829 C 289.644 221.167,283.518 221.887,275.750 222.415 C 273.642 222.558,270.529 222.784,268.833 222.917 C 257.036 223.843,233.951 223.624,224.000 222.493 C 211.983 221.126,209.063 220.643,201.750 218.816 C 197.966 217.870,197.628 217.775,191.917 216.057 C 180.776 212.706,174.337 210.323,166.340 206.592 C 145.892 197.052,133.733 186.710,127.682 173.710 C 123.918 165.625,122.361 164.667,113.000 164.669 C 99.596 164.671,85.262 169.943,77.821 177.607 C 71.476 184.142,68.450 195.533,69.478 209.011 C 70.401 221.093,77.980 236.654,88.015 247.069 C 105.367 265.078,128.426 277.167,158.417 283.978 C 175.671 287.896,184.314 289.268,190.809 289.121 C 195.115 289.022,195.831 288.923,203.041 287.423 C 206.651 286.672,212.555 285.639,216.833 285.010 C 218.878 284.710,224.580 283.683,231.583 282.354 C 233.050 282.076,235.713 281.582,237.500 281.258 C 239.287 280.933,242.175 280.408,243.917 280.092 C 248.819 279.201,250.868 278.869,253.667 278.509 C 255.088 278.326,257.547 277.985,259.132 277.751 C 260.717 277.517,263.380 277.176,265.049 276.992 C 268.207 276.645,274.232 275.867,274.667 275.750 C 274.804 275.713,275.854 275.565,277.000 275.422 C 281.792 274.820,290.017 272.933,297.333 270.756 C 298.662 270.360,301.284 269.647,303.159 269.172 C 305.034 268.696,306.783 268.196,307.045 268.060 C 307.901 267.617,307.857 267.903,306.960 268.606 C 306.478 268.984,305.378 269.945,304.515 270.742 C 302.433 272.665,297.242 275.833,296.173 275.833 C 296.078 275.833,296.000 275.908,296.000 276.000 C 296.000 276.092,296.028 276.167,296.063 276.167 C 296.248 276.167,297.911 275.441,299.935 274.477 C 300.679 274.123,301.422 273.833,301.586 273.833 C 301.922 273.833,303.617 273.073,304.000 272.750 C 304.137 272.634,304.438 272.485,304.667 272.418 C 304.896 272.351,305.308 272.204,305.583 272.092 C 306.452 271.738,307.227 271.467,307.958 271.264 C 308.354 271.154,308.942 270.800,309.292 270.461 C 309.635 270.127,310.704 269.470,311.667 269.001 C 312.629 268.532,313.717 267.979,314.083 267.774 C 314.450 267.568,315.012 267.298,315.333 267.173 C 315.654 267.049,316.104 266.779,316.333 266.574 C 316.563 266.369,316.985 266.152,317.272 266.092 C 317.559 266.032,318.084 265.738,318.439 265.439 C 318.793 265.140,319.458 264.686,319.917 264.429 C 320.375 264.172,321.087 263.771,321.500 263.538 C 321.912 263.304,322.400 263.032,322.583 262.934 C 322.767 262.835,323.528 262.359,324.276 261.877 C 325.023 261.395,325.676 261.000,325.726 261.000 C 325.776 261.000,326.154 260.773,326.565 260.495 C 326.977 260.217,327.543 259.909,327.824 259.812 C 328.104 259.714,328.333 259.574,328.333 259.501 C 328.333 259.428,328.698 259.177,329.144 258.944 C 329.590 258.711,330.434 258.187,331.019 257.781 C 331.604 257.374,332.488 256.838,332.982 256.589 C 333.476 256.341,334.338 255.833,334.898 255.461 C 335.458 255.089,336.350 254.496,336.880 254.142 C 337.410 253.789,337.890 253.500,337.946 253.500 C 338.003 253.500,338.357 253.252,338.733 252.950 C 339.109 252.647,339.717 252.227,340.083 252.016 C 340.450 251.805,340.810 251.527,340.883 251.399 C 340.957 251.271,341.125 251.167,341.258 251.167 C 341.391 251.167,341.500 251.092,341.500 251.000 C 341.500 250.908,341.602 250.833,341.726 250.833 C 341.903 250.833,342.759 250.265,343.653 249.555 C 343.691 249.525,343.689 249.467,343.650 249.427 C 343.561 249.339,341.153 250.768,340.914 251.050 C 340.821 251.160,340.537 251.362,340.284 251.500 C 340.031 251.637,339.028 252.265,338.054 252.894 C 334.514 255.184,328.060 258.521,321.000 261.715 C 312.792 265.427,309.246 266.687,303.833 267.815 C 302.504 268.092,299.729 268.700,297.667 269.167 C 292.775 270.274,288.356 271.153,283.417 272.003 C 281.217 272.381,278.929 272.792,278.333 272.916 C 275.847 273.433,267.770 274.846,265.917 275.088 C 264.817 275.232,261.929 275.609,259.500 275.927 C 257.071 276.245,253.283 276.729,251.083 277.001 C 248.883 277.274,246.258 277.607,245.250 277.741 C 244.242 277.875,242.067 278.144,240.417 278.338 C 232.012 279.326,226.113 280.119,222.417 280.757 C 221.133 280.978,218.996 281.344,217.667 281.569 C 215.024 282.016,207.465 283.366,203.250 284.143 C 198.091 285.095,194.340 285.418,188.667 285.402 C 183.221 285.387,183.615 285.424,174.583 284.081 C 164.714 282.615,150.360 278.742,140.744 274.952 C 139.464 274.448,137.554 273.695,136.500 273.279 C 133.657 272.158,130.337 270.654,123.833 267.542 C 94.969 253.728,75.440 231.894,72.888 210.583 C 71.348 197.727,74.568 185.219,81.074 178.787 C 89.561 170.396,104.998 165.301,114.983 167.595 C 118.208 168.336,120.241 170.510,124.250 177.506 C 132.773 192.379,144.443 201.525,166.056 210.272 C 183.572 217.361,200.582 221.902,217.833 224.095 C 219.621 224.322,221.533 224.578,222.083 224.664 C 223.215 224.839,227.105 225.213,231.667 225.584 C 236.196 225.953,245.654 226.209,250.333 226.089 C 257.371 225.910,268.001 225.501,270.000 225.334 C 271.054 225.246,273.829 225.056,276.167 224.912 C 278.504 224.769,280.567 224.617,280.750 224.575 C 280.933 224.532,282.711 224.350,284.700 224.169 C 288.384 223.834,292.983 223.177,300.000 221.983 C 308.236 220.582,308.862 220.461,316.833 218.734 C 327.251 216.478,342.468 212.090,350.583 209.001 C 359.930 205.444,365.005 203.249,372.167 199.669 C 381.046 195.230,388.074 189.745,393.527 183.000 C 395.861 180.113,396.675 179.306,397.582 178.978 L 398.202 178.754 398.092 177.642 C 398.022 176.928,398.046 176.492,398.158 176.422 C 398.254 176.362,398.333 176.118,398.333 175.878 C 398.333 175.639,398.465 175.298,398.625 175.121 C 398.886 174.832,398.916 174.382,398.911 170.857 C 398.904 166.706,398.941 167.018,397.842 161.667 C 397.534 160.166,395.764 156.159,394.923 155.057 C 394.599 154.633,394.333 154.194,394.333 154.082 C 394.333 153.971,394.108 153.596,393.833 153.250 C 393.558 152.904,393.333 152.546,393.333 152.456 C 393.333 152.365,393.090 152.012,392.792 151.672 C 391.272 149.936,390.981 149.547,390.890 149.125 C 390.836 148.873,390.726 148.667,390.646 148.667 C 390.036 148.667,390.868 146.440,391.921 145.257 C 392.239 144.899,392.500 144.539,392.500 144.456 C 392.500 144.374,392.778 143.967,393.118 143.552 C 393.458 143.137,393.750 142.712,393.768 142.607 C 393.849 142.124,394.603 140.683,395.208 139.854 C 395.369 139.635,395.500 139.353,395.500 139.228 C 395.500 139.102,395.650 138.850,395.833 138.667 C 396.017 138.483,396.167 138.182,396.167 137.998 C 396.167 137.813,396.234 137.532,396.316 137.373 C 396.978 136.093,397.018 135.789,396.994 132.245 C 396.982 130.323,397.020 127.822,397.079 126.688 C 397.179 124.774,397.163 124.601,396.854 124.272 C 396.671 124.076,396.439 123.579,396.339 123.167 C 395.595 120.088,395.329 119.178,395.029 118.667 C 394.840 118.346,394.575 117.558,394.440 116.917 C 394.305 116.275,394.069 115.487,393.916 115.167 C 393.529 114.356,393.076 113.543,392.872 113.294 C 392.777 113.178,392.612 112.746,392.506 112.333 C 392.400 111.921,392.138 111.208,391.923 110.750 C 391.091 108.974,390.833 108.325,390.833 108.002 C 390.833 107.817,390.763 107.667,390.678 107.667 C 390.592 107.667,390.470 107.498,390.406 107.292 C 390.342 107.085,390.037 106.534,389.728 106.066 C 389.419 105.598,389.167 105.131,389.167 105.028 C 389.167 104.926,389.017 104.596,388.834 104.296 C 388.651 103.996,388.501 103.627,388.501 103.476 C 388.500 103.326,388.387 103.159,388.250 103.106 C 388.113 103.054,388.000 102.896,388.000 102.755 C 388.000 102.615,387.925 102.500,387.833 102.500 C 387.742 102.500,387.667 102.354,387.667 102.177 C 387.667 101.999,387.589 101.805,387.493 101.746 C 387.398 101.687,387.124 101.326,386.886 100.944 C 386.647 100.562,386.347 100.188,386.218 100.113 C 386.090 100.037,386.027 99.845,386.077 99.686 C 386.136 99.502,385.988 99.225,385.668 98.918 C 384.988 98.266,385.038 98.583,385.830 99.944 C 387.191 102.283,389.032 105.870,390.863 109.750 L 392.750 113.750 392.748 117.833 C 392.747 122.336,392.673 122.724,391.509 124.394 C 388.963 128.048,384.573 130.671,372.583 135.704 C 366.791 138.136,356.831 141.297,351.716 142.329 C 334.524 145.795,323.477 144.763,315.764 138.972 C 312.317 136.384,311.504 134.711,310.916 129.000 C 309.814 118.282,309.112 114.869,306.165 105.907 C 301.338 91.227,301.599 89.724,310.546 80.686 C 323.847 67.249,336.800 62.209,348.417 65.950 C 354.928 68.046,362.633 72.986,369.437 79.426 C 370.731 80.651,371.834 81.610,371.888 81.557 C 372.019 81.426,370.498 79.833,370.242 79.833 C 370.130 79.833,369.998 79.678,369.948 79.488 C 369.899 79.297,369.701 79.101,369.510 79.051 C 369.318 79.001,369.181 78.866,369.206 78.751 C 369.273 78.432,361.921 71.185,360.563 70.232 C 360.185 69.967,358.995 69.112,357.918 68.333 C 356.841 67.554,355.758 66.804,355.511 66.667 C 354.882 66.317,352.945 64.812,352.781 64.546 C 352.707 64.425,352.574 64.371,352.486 64.425 C 352.398 64.480,351.971 64.310,351.538 64.049 C 350.081 63.171,346.586 62.021,343.083 61.268 C 336.370 59.824,332.443 60.232,325.575 63.088 C 314.534 67.680,310.971 70.636,301.978 82.667 C 297.591 88.537,296.675 89.096,294.601 87.173 C 292.469 85.196,292.757 82.986,296.004 76.417 C 302.370 63.537,306.489 58.887,315.417 54.501 C 321.596 51.466,324.666 51.200,332.583 53.015 C 336.580 53.932,338.156 54.504,340.833 56.010 C 341.613 56.448,342.475 56.855,342.750 56.915 C 343.527 57.083,341.868 55.572,340.492 54.860 C 339.900 54.553,339.154 54.148,338.833 53.960 C 338.512 53.771,337.800 53.375,337.250 53.078 C 336.700 52.782,335.650 52.215,334.917 51.820 C 334.183 51.425,333.558 51.041,333.528 50.967 C 333.497 50.894,333.394 50.833,333.299 50.833 C 333.204 50.833,332.644 50.490,332.055 50.070 C 331.467 49.650,330.332 48.968,329.534 48.555 C 328.736 48.142,327.971 47.711,327.833 47.596 C 327.490 47.310,324.116 45.667,323.872 45.667 C 323.565 45.667,321.833 44.810,321.833 44.658 C 321.833 44.584,321.665 44.471,321.458 44.408 C 321.252 44.345,320.398 43.965,319.560 43.563 C 318.723 43.161,317.692 42.785,317.270 42.727 C 316.849 42.669,316.419 42.519,316.315 42.394 C 316.211 42.269,315.995 42.167,315.835 42.167 C 315.676 42.167,315.354 42.017,315.121 41.833 C 314.888 41.650,314.559 41.498,314.390 41.495 C 314.222 41.492,313.938 41.379,313.760 41.245 C 313.582 41.110,313.300 41.000,313.135 41.000 C 312.969 41.000,312.045 40.625,311.083 40.167 C 310.121 39.708,309.226 39.333,309.094 39.333 C 308.962 39.333,308.269 39.101,307.552 38.818 C 304.984 37.801,304.541 37.640,301.417 36.584 C 299.675 35.995,297.800 35.400,297.250 35.261 C 295.308 34.772,294.666 34.566,294.467 34.367 C 294.357 34.257,294.113 34.166,293.925 34.166 C 293.737 34.165,293.396 34.064,293.167 33.941 C 292.938 33.818,292.188 33.413,291.500 33.041 C 290.813 32.670,289.801 32.235,289.252 32.076 C 288.703 31.917,288.141 31.723,288.002 31.645 C 287.863 31.568,287.075 31.249,286.250 30.937 C 285.425 30.624,284.262 30.180,283.667 29.950 C 283.071 29.719,282.133 29.400,281.583 29.240 C 280.509 28.927,279.074 28.422,278.225 28.058 C 277.936 27.935,277.595 27.833,277.466 27.833 C 277.338 27.833,277.162 27.767,277.075 27.687 C 276.988 27.606,276.617 27.446,276.250 27.332 C 275.883 27.217,275.508 27.067,275.417 26.998 C 275.325 26.928,274.987 26.820,274.667 26.756 C 274.346 26.692,273.446 26.429,272.667 26.171 C 271.887 25.913,270.987 25.648,270.667 25.582 C 270.346 25.516,270.008 25.407,269.917 25.340 C 269.661 25.154,266.003 23.964,265.250 23.822 C 264.624 23.703,263.334 23.292,262.583 22.971 C 262.400 22.892,261.762 22.688,261.167 22.516 C 260.571 22.345,259.483 21.859,258.750 21.437 C 258.017 21.015,257.324 20.669,257.212 20.668 C 257.099 20.667,256.499 20.470,255.878 20.230 C 255.258 19.989,254.487 19.695,254.167 19.576 C 253.321 19.263,250.474 18.162,250.083 17.998 C 249.900 17.920,249.487 17.814,249.167 17.761 C 248.846 17.708,248.369 17.553,248.106 17.416 C 247.843 17.279,247.543 17.164,247.439 17.161 C 247.335 17.158,246.950 17.010,246.583 16.833 C 246.217 16.656,245.744 16.509,245.533 16.506 C 245.321 16.503,244.609 16.269,243.949 15.987 C 243.290 15.705,241.919 15.264,240.904 15.006 C 239.889 14.748,238.526 14.304,237.876 14.019 C 237.226 13.733,236.480 13.500,236.218 13.500 C 235.957 13.500,235.219 13.348,234.580 13.163 C 231.870 12.378,231.043 12.146,230.333 11.975 C 229.921 11.876,229.505 11.732,229.410 11.656 C 229.021 11.344,221.941 9.836,219.250 9.491 C 218.608 9.409,217.446 9.259,216.667 9.158 C 213.631 8.764,205.261 9.087,203.472 9.667 C 202.624 9.942,201.860 10.167,201.775 10.167 C 201.476 10.167,199.803 11.721,199.380 12.392 C 198.778 13.345,198.596 17.253,199.102 18.374 C 200.087 20.560,198.681 22.517,196.914 21.419 C 196.730 21.304,196.337 21.157,196.041 21.092 C 195.746 21.027,195.461 20.905,195.409 20.821 C 195.356 20.736,195.187 20.667,195.032 20.667 C 194.877 20.667,194.300 20.486,193.750 20.264 C 192.445 19.737,192.135 19.628,191.833 19.585 C 191.424 19.528,190.120 19.140,189.583 18.916 C 189.308 18.801,188.671 18.580,188.167 18.425 C 187.135 18.107,186.607 17.882,186.000 17.499 C 185.771 17.355,185.133 17.059,184.583 16.843 C 184.033 16.626,183.081 16.159,182.468 15.806 C 181.196 15.073,179.921 14.500,179.561 14.500 C 179.427 14.500,179.007 14.350,178.627 14.167 C 178.248 13.983,177.797 13.833,177.624 13.833 C 177.235 13.833,176.697 13.562,176.211 13.120 C 176.003 12.930,175.234 12.639,174.461 12.459 C 171.861 11.850,171.415 11.725,170.667 11.395 C 169.731 10.982,166.886 10.089,165.667 9.825 C 165.162 9.715,164.600 9.499,164.417 9.345 C 164.233 9.190,163.483 8.933,162.750 8.774 C 162.017 8.615,160.629 8.294,159.667 8.061 C 158.704 7.828,157.429 7.533,156.833 7.406 C 156.237 7.279,155.112 7.022,154.333 6.835 C 153.554 6.649,152.242 6.380,151.417 6.237 C 149.821 5.962,149.056 5.762,148.250 5.408 C 147.389 5.029,145.541 4.517,144.627 4.402 C 144.145 4.342,142.962 4.110,142.000 3.886 C 141.037 3.662,139.612 3.439,138.833 3.390 C 138.054 3.341,137.020 3.158,136.535 2.984 C 136.051 2.809,135.494 2.667,135.297 2.667 C 135.101 2.667,134.710 2.597,134.428 2.513 C 133.143 2.127,131.296 1.816,129.358 1.660 C 128.199 1.566,126.987 1.421,126.667 1.338 C 123.766 0.582,113.567 0.023,109.583 0.400 C 108.387 0.514,107.870 0.488,107.028 0.271 C 105.894 -0.020,102.619 -0.064,100.417 0.183 M224.000 13.921 C 230.138 14.177,236.845 15.588,246.250 18.602 C 247.808 19.102,250.433 19.890,252.083 20.353 C 260.892 22.828,263.130 23.743,264.814 25.557 C 265.289 26.070,265.332 25.870,263.769 30.417 C 261.547 36.880,260.468 43.651,261.487 44.736 C 262.373 45.680,263.129 45.482,267.500 43.167 C 276.806 38.238,283.677 37.189,296.583 38.727 C 304.260 39.641,305.074 39.890,308.998 42.512 C 311.289 44.043,311.326 44.093,310.896 45.046 C 310.372 46.208,309.573 47.190,302.997 54.750 C 298.314 60.134,296.038 63.266,293.006 68.500 C 292.077 70.104,291.070 71.666,290.769 71.970 L 290.220 72.524 288.485 71.338 C 287.531 70.686,285.962 69.611,285.000 68.950 C 283.477 67.904,279.308 65.363,276.750 63.922 C 275.912 63.449,270.201 60.069,263.083 55.833 C 260.975 54.579,258.537 53.151,257.667 52.661 C 256.796 52.171,254.958 51.098,253.583 50.276 C 249.182 47.647,241.519 43.743,236.748 41.700 C 235.466 41.152,234.154 40.584,233.833 40.439 C 233.512 40.294,231.112 39.266,228.500 38.154 C 217.966 33.673,212.064 29.703,211.082 26.439 C 210.159 23.371,211.138 17.713,212.977 15.494 C 214.120 14.115,216.246 13.603,220.167 13.763 C 221.037 13.798,222.762 13.870,224.000 13.921 M258.917 75.497 C 264.464 75.992,264.478 75.995,268.619 77.774 C 278.442 81.993,282.968 84.960,289.425 91.411 C 300.007 101.984,305.092 111.992,306.020 124.075 C 307.023 137.120,301.106 149.252,289.500 157.950 C 283.368 162.546,271.159 166.853,261.500 167.828 C 247.373 169.254,239.923 168.101,229.333 162.849 C 218.696 157.574,216.070 152.857,213.826 135.000 C 211.786 118.762,209.963 114.136,202.605 106.526 C 199.072 102.873,197.956 101.167,197.430 98.621 C 197.046 96.766,197.082 95.951,197.569 95.384 L 197.972 94.917 203.444 94.913 C 208.747 94.910,208.950 94.898,210.000 94.522 C 212.691 93.559,214.320 92.488,217.673 89.477 C 225.012 82.888,227.039 81.552,233.500 79.054 C 238.894 76.967,244.114 75.730,249.417 75.279 C 251.410 75.110,255.673 75.208,258.917 75.497 M344.583 75.732 C 340.035 77.162,338.585 83.532,339.731 97.048 C 341.379 116.493,344.960 124.954,352.823 127.986 C 356.334 129.340,358.173 129.233,362.962 127.394 C 364.270 126.892,366.670 126.046,368.295 125.514 C 375.903 123.023,378.029 119.032,376.691 109.750 C 374.978 97.862,371.896 92.574,361.464 83.624 C 353.308 76.627,348.655 74.452,344.583 75.732 M260.750 95.233 C 254.811 97.113,250.973 104.160,246.492 121.417 C 242.358 137.338,241.440 142.164,241.757 146.333 C 242.303 153.535,245.318 155.736,253.287 154.749 C 266.845 153.070,276.245 146.408,279.754 135.989 C 282.046 129.182,282.121 117.966,279.920 111.250 C 276.748 101.577,266.847 93.304,260.750 95.233 M365.350 99.528 C 368.347 100.560,370.895 105.243,369.749 107.611 C 368.405 110.389,364.181 113.246,361.946 112.889 C 359.251 112.458,357.745 106.799,359.397 103.307 C 360.630 100.701,363.488 98.887,365.350 99.528 M268.285 121.689 C 270.670 122.569,273.250 126.021,273.250 128.333 C 273.250 131.291,267.780 138.130,263.920 139.998 C 259.781 142.002,259.780 128.500,263.920 123.281 C 265.387 121.432,266.493 121.028,268.285 121.689 M395.676 128.792 C 396.342 131.987,395.495 134.161,392.596 136.698 C 387.359 141.282,379.894 144.439,359.833 150.555 C 352.424 152.813,339.968 154.530,327.583 154.998 C 323.188 155.165,322.318 155.259,321.313 155.675 C 320.640 155.954,320.777 156.184,321.876 156.625 C 325.609 158.122,332.962 158.134,347.083 156.665 C 348.917 156.475,351.692 156.136,353.250 155.912 C 367.587 153.856,372.833 153.651,372.833 155.146 C 372.833 156.636,370.605 158.114,361.250 162.831 C 346.982 170.025,340.528 171.368,332.500 168.814 C 323.248 165.871,314.512 160.220,309.136 153.702 C 306.341 150.312,306.158 148.893,308.151 146.055 C 309.630 143.949,309.818 143.945,317.000 145.865 C 321.607 147.096,321.738 147.128,324.167 147.589 C 330.397 148.773,334.109 148.801,344.417 147.741 C 362.869 145.845,384.082 138.243,391.833 130.749 C 395.227 127.468,395.384 127.388,395.676 128.792 M114.583 154.845 C 111.669 155.098,106.174 155.986,100.167 157.176 C 93.742 158.447,91.732 159.135,90.171 160.595 C 89.151 161.550,89.134 161.660,90.042 161.479 C 90.431 161.401,91.875 161.112,93.250 160.835 C 95.652 160.353,103.595 158.995,107.417 158.414 C 113.261 157.526,118.717 156.414,119.782 155.893 C 121.845 154.885,119.517 154.416,114.583 154.845 M396.439 184.292 C 396.051 185.061,395.000 188.150,395.000 188.522 C 395.000 188.933,395.461 188.308,395.546 187.781 C 395.595 187.479,396.011 186.393,396.471 185.367 C 397.322 183.464,397.297 182.593,396.439 184.292 M97.000 185.639 C 88.501 188.469,86.651 197.493,92.041 209.833 C 99.634 227.214,116.321 243.212,137.083 253.013 C 144.798 256.654,158.311 261.343,167.000 263.393 C 167.962 263.620,169.950 264.114,171.417 264.490 C 182.783 267.408,192.526 268.659,210.417 269.498 C 227.495 270.299,249.554 270.515,252.833 269.913 C 253.063 269.871,254.938 269.723,257.000 269.586 C 261.190 269.306,261.963 269.223,268.000 268.403 C 272.418 267.803,275.482 267.323,282.250 266.172 C 316.248 260.388,345.678 248.264,350.989 237.855 C 352.804 234.297,347.199 230.002,336.176 226.503 C 335.402 226.257,334.746 225.987,334.717 225.902 C 334.585 225.504,339.264 224.074,346.667 222.252 C 350.321 221.353,353.567 220.540,359.750 218.976 C 360.483 218.791,361.683 218.393,362.417 218.091 C 363.150 217.789,364.650 217.259,365.750 216.914 C 366.850 216.568,368.323 215.992,369.023 215.635 C 373.559 213.317,372.278 221.152,367.215 226.693 C 366.349 227.641,364.376 229.996,362.831 231.927 C 359.698 235.841,356.785 238.801,353.464 241.446 C 349.613 244.514,347.555 246.471,348.930 245.757 C 349.180 245.628,349.428 245.453,349.483 245.369 C 349.538 245.285,349.965 244.924,350.431 244.567 C 351.585 243.681,353.647 242.016,354.222 241.503 C 354.482 241.272,354.803 241.044,354.936 240.996 C 355.636 240.743,359.807 236.629,365.003 231.070 C 365.353 230.695,365.760 230.133,365.907 229.820 C 366.375 228.827,366.596 228.517,367.354 227.791 C 368.690 226.512,371.167 222.656,371.167 221.854 C 371.167 221.751,371.233 221.667,371.315 221.667 C 371.397 221.667,371.782 220.912,372.171 219.989 C 372.985 218.060,373.037 216.471,372.344 214.707 C 371.898 213.571,371.910 213.153,372.417 212.202 C 372.646 211.772,372.833 211.295,372.833 211.142 C 372.833 210.840,374.351 209.667,374.742 209.667 C 374.875 209.667,375.043 209.569,375.117 209.450 C 375.190 209.330,375.662 208.983,376.167 208.678 C 376.671 208.372,377.336 207.902,377.646 207.632 C 377.955 207.362,378.405 207.055,378.646 206.949 C 379.253 206.683,382.203 204.140,382.869 203.308 C 383.170 202.932,383.773 202.261,384.208 201.818 C 384.644 201.375,385.000 200.915,385.000 200.795 C 385.000 200.426,386.010 199.325,387.050 198.560 C 387.593 198.160,387.989 197.833,387.930 197.833 C 387.723 197.833,384.456 200.021,382.864 201.226 C 379.320 203.908,376.081 205.895,369.625 209.346 C 360.142 214.414,358.365 215.123,339.833 221.227 C 330.029 224.456,329.566 224.587,323.667 225.820 C 321.421 226.289,318.271 226.980,316.667 227.355 C 315.063 227.729,312.587 228.249,311.167 228.509 C 309.746 228.769,307.608 229.173,306.417 229.407 C 301.391 230.394,295.420 231.520,293.167 231.904 C 291.837 232.131,290.112 232.434,289.333 232.578 C 288.554 232.722,286.942 232.983,285.750 233.159 C 284.558 233.336,282.496 233.667,281.167 233.897 C 278.718 234.319,275.296 234.796,268.500 235.662 C 260.659 236.662,235.213 236.938,222.667 236.161 C 221.246 236.073,218.133 235.888,215.750 235.750 C 203.586 235.047,195.892 234.270,189.083 233.060 C 186.792 232.653,184.242 232.207,183.417 232.071 C 170.450 229.922,158.044 226.119,145.685 220.506 C 127.963 212.458,119.348 206.198,107.591 192.826 C 101.685 186.108,99.679 184.747,97.000 185.639 M97.426 190.932 C 98.626 191.501,102.170 194.541,107.417 199.500 C 114.958 206.628,121.991 211.899,130.250 216.613 C 137.461 220.729,151.180 226.500,159.919 229.092 C 164.954 230.586,168.386 231.473,174.000 232.730 C 176.649 233.324,177.212 233.437,184.083 234.749 C 191.930 236.247,191.980 236.256,197.208 237.075 C 198.056 237.207,199.762 237.398,201.000 237.499 C 203.361 237.691,204.738 237.824,208.583 238.234 C 212.078 238.606,214.834 238.809,219.083 239.008 C 221.192 239.107,224.679 239.338,226.833 239.522 C 230.586 239.843,231.887 239.938,237.667 240.315 C 239.088 240.408,242.875 240.567,246.083 240.669 C 251.929 240.855,258.152 241.436,261.500 242.108 C 270.531 243.919,265.792 252.405,253.326 256.744 C 237.685 262.189,225.749 263.141,209.500 260.240 C 205.940 259.604,197.555 256.847,189.750 253.745 C 176.476 248.470,173.532 247.140,156.667 238.794 C 146.505 233.766,144.049 232.678,139.250 231.077 C 131.212 228.397,127.525 227.736,119.250 227.493 C 110.556 227.238,109.909 227.028,105.935 223.176 C 97.840 215.331,91.411 202.246,92.254 195.333 C 92.584 192.628,95.597 190.064,97.426 190.932 M388.500 197.500 C 388.271 197.679,388.147 197.828,388.224 197.830 C 388.301 197.832,388.555 197.683,388.788 197.500 C 389.021 197.317,389.145 197.168,389.064 197.170 C 388.983 197.172,388.729 197.321,388.500 197.500 M330.489 230.431 C 336.695 231.984,341.676 234.494,343.958 237.218 C 346.497 240.248,340.651 245.892,330.490 250.221 C 322.786 253.503,305.725 258.793,294.917 261.252 C 282.852 263.996,266.138 266.704,256.333 267.502 C 251.836 267.869,243.657 268.129,241.667 267.968 C 240.612 267.883,239.469 267.808,239.125 267.801 C 238.781 267.794,238.500 267.737,238.500 267.675 C 238.500 267.613,238.781 267.429,239.125 267.267 C 239.469 267.105,240.088 266.761,240.500 266.501 C 241.627 265.793,242.936 265.283,248.441 263.408 C 251.205 262.467,254.805 261.169,256.441 260.524 C 258.078 259.879,260.504 258.928,261.833 258.411 C 267.777 256.097,276.090 251.606,276.813 250.318 C 277.359 249.345,274.758 245.569,270.738 241.496 C 269.453 240.195,269.325 240.000,269.757 240.000 C 269.899 240.000,270.930 239.707,272.049 239.348 C 276.521 237.915,278.382 237.486,285.083 236.340 C 294.179 234.785,302.713 233.286,308.833 232.169 C 316.155 230.833,321.575 230.013,324.083 229.861 C 326.448 229.718,328.299 229.883,330.489 230.431 M126.000 233.343 C 132.184 233.908,139.201 236.532,155.787 244.481 C 160.810 246.888,166.234 249.706,170.000 251.865 C 174.153 254.246,175.710 255.095,180.167 257.415 C 184.830 259.841,189.665 262.940,189.289 263.261 C 189.176 263.358,184.358 262.972,183.000 262.758 C 182.129 262.620,179.842 262.277,177.917 261.996 C 167.492 260.471,157.499 257.474,143.750 251.748 C 132.225 246.949,119.966 239.325,116.723 234.941 C 115.833 233.738,115.817 233.761,117.703 233.512 C 118.554 233.399,119.362 233.284,119.500 233.256 C 120.123 233.129,124.268 233.185,126.000 233.343 M347.757 246.258 C 347.485 246.474,347.319 246.708,347.387 246.775 C 347.455 246.843,347.710 246.699,347.955 246.455 C 348.529 245.880,348.395 245.747,347.757 246.258 M294.458 276.610 C 294.115 276.752,293.833 276.937,293.833 277.021 C 293.833 277.259,294.714 276.994,295.079 276.646 C 295.472 276.271,295.299 276.261,294.458 276.610 " stroke="none" fill="#070806" fill-rule="evenodd"></path><path id="path2" d="M349.500 62.040 C 349.500 62.277,351.452 63.770,351.586 63.636 C 351.675 63.547,350.528 62.457,349.958 62.090 C 349.578 61.845,349.500 61.837,349.500 62.040 M336.250 65.155 C 327.873 66.634,317.348 73.289,308.949 82.417 C 301.720 90.273,301.567 91.855,306.583 106.917 C 308.390 112.342,309.121 115.316,310.169 121.500 C 310.254 122.004,310.439 123.542,310.580 124.917 C 311.193 130.910,311.360 132.186,311.682 133.349 C 313.829 141.095,326.812 145.627,341.750 143.844 C 353.895 142.394,364.155 139.405,377.646 133.387 C 384.789 130.200,387.139 128.832,389.568 126.446 C 392.435 123.630,392.712 122.809,392.636 117.369 L 392.583 113.583 390.695 109.583 C 388.245 104.392,385.785 99.794,384.247 97.531 C 384.019 97.196,383.833 96.839,383.833 96.737 C 383.833 96.635,383.683 96.416,383.500 96.250 C 383.317 96.084,383.167 95.847,383.167 95.724 C 383.167 95.601,383.098 95.500,383.014 95.500 C 382.929 95.500,382.688 95.219,382.478 94.875 C 382.268 94.531,381.999 94.151,381.881 94.030 C 381.763 93.909,381.667 93.704,381.667 93.575 C 381.667 93.446,381.485 93.222,381.264 93.077 C 380.764 92.750,380.525 92.243,380.947 92.405 C 381.202 92.503,381.200 92.480,380.929 92.180 C 380.763 91.997,380.548 91.862,380.452 91.882 C 380.356 91.901,380.196 91.765,380.097 91.580 C 379.998 91.395,379.748 91.058,379.542 90.830 C 378.938 90.165,378.745 89.926,378.020 88.944 C 377.642 88.433,377.333 87.969,377.333 87.914 C 377.333 87.858,376.835 87.311,376.226 86.698 C 375.617 86.085,374.502 84.869,373.749 83.995 C 370.324 80.026,365.445 75.698,361.199 72.864 C 359.852 71.965,358.000 70.715,357.083 70.087 C 350.992 65.911,342.863 63.987,336.250 65.155 M250.833 75.279 C 245.614 75.511,239.833 76.770,234.052 78.934 C 227.225 81.489,224.898 83.025,216.859 90.282 C 212.462 94.251,210.285 95.120,205.000 95.016 C 196.972 94.859,197.333 94.768,197.333 96.945 C 197.333 99.883,198.604 102.301,201.946 105.723 C 210.042 114.012,211.922 118.622,213.918 135.083 C 216.020 152.412,218.818 157.496,229.083 162.647 C 240.075 168.161,248.338 169.310,263.917 167.489 C 272.162 166.525,284.337 161.805,290.192 157.302 C 304.175 146.547,309.179 130.803,303.980 113.917 C 299.832 100.442,287.077 86.405,273.016 79.841 C 265.026 76.111,265.043 76.115,256.667 75.415 C 253.881 75.182,253.313 75.169,250.833 75.279 M349.161 75.592 C 355.294 77.038,369.077 89.098,372.909 96.371 C 376.610 103.396,378.231 115.631,376.045 120.044 C 374.693 122.771,372.724 124.164,368.083 125.676 C 366.617 126.154,364.554 126.881,363.500 127.292 C 358.120 129.387,356.077 129.508,352.478 127.939 C 344.622 124.516,341.170 116.085,339.586 96.445 C 338.260 80.004,341.153 73.705,349.161 75.592 M264.757 95.084 C 268.346 95.991,273.300 99.781,276.208 103.845 C 280.894 110.392,282.425 118.169,281.245 129.417 C 280.041 140.901,273.347 149.123,262.250 152.749 C 246.090 158.030,240.238 154.672,241.916 141.083 C 242.533 136.091,246.088 121.705,249.041 112.250 C 253.079 99.324,258.425 93.484,264.757 95.084 M363.033 99.780 C 359.379 101.072,357.707 106.580,359.691 110.789 C 360.980 113.523,363.652 113.489,367.110 110.695 C 370.083 108.293,370.678 105.880,368.986 103.083 C 367.181 100.099,365.215 99.008,363.033 99.780 M265.576 121.811 C 262.625 123.610,260.810 129.063,261.048 135.416 C 261.261 141.126,262.859 141.541,267.484 137.087 C 273.926 130.882,274.692 127.516,270.586 123.450 C 268.744 121.626,266.879 121.016,265.576 121.811 M323.083 230.012 C 322.625 230.088,320.600 230.383,318.583 230.668 C 316.567 230.953,313.117 231.512,310.917 231.910 C 308.717 232.309,306.579 232.686,306.167 232.748 C 305.754 232.811,304.667 233.014,303.750 233.200 C 302.062 233.542,297.758 234.294,291.083 235.413 C 279.972 237.276,276.656 237.978,272.173 239.414 C 270.882 239.828,269.780 240.167,269.723 240.167 C 269.667 240.167,270.213 240.785,270.937 241.542 C 275.907 246.734,277.626 249.563,276.574 250.814 C 275.602 251.969,266.629 256.685,262.000 258.475 C 261.037 258.847,258.525 259.822,256.417 260.642 C 254.308 261.462,250.783 262.732,248.583 263.465 C 243.289 265.227,242.035 265.724,240.295 266.746 L 238.833 267.605 241.085 267.827 C 244.497 268.165,254.456 267.676,261.500 266.826 C 272.493 265.500,281.815 263.950,292.464 261.678 C 305.762 258.841,325.234 252.700,333.417 248.763 C 339.853 245.666,344.500 241.504,344.500 238.835 C 344.500 234.780,330.093 228.845,323.083 230.012 M117.763 233.603 C 115.972 233.882,116.037 233.827,116.567 234.607 C 118.167 236.961,122.697 240.416,130.083 244.915 C 137.577 249.479,152.859 255.743,164.268 258.927 C 170.480 260.660,172.260 261.043,178.250 261.930 C 184.890 262.915,185.522 262.989,187.167 262.988 L 188.750 262.986 188.067 262.368 C 186.875 261.289,184.646 259.896,181.315 258.146 C 177.124 255.944,173.604 254.021,169.167 251.508 C 165.920 249.670,156.340 244.782,152.583 243.047 C 151.758 242.666,149.958 241.834,148.583 241.198 C 140.241 237.340,134.355 235.080,130.039 234.079 C 126.914 233.354,120.864 233.120,117.763 233.603 " stroke="none" fill="#f5ecee" fill-rule="evenodd"></path><path id="path3" d="M95.330 191.158 C 93.584 192.060,92.469 193.574,92.254 195.333 C 91.411 202.246,97.840 215.331,105.935 223.176 C 109.915 227.034,110.544 227.237,119.333 227.499 C 125.316 227.677,126.778 227.829,130.833 228.694 C 138.398 230.308,143.725 232.390,156.667 238.794 C 173.532 247.140,176.476 248.470,189.750 253.745 C 197.555 256.847,205.940 259.604,209.500 260.240 C 225.749 263.141,237.685 262.189,253.326 256.744 C 265.792 252.405,270.531 243.919,261.500 242.108 C 258.152 241.436,251.929 240.855,246.083 240.669 C 242.875 240.567,239.088 240.408,237.667 240.315 C 231.887 239.938,230.586 239.843,226.833 239.522 C 224.679 239.338,221.192 239.107,219.083 239.008 C 214.834 238.809,212.078 238.606,208.583 238.234 C 204.738 237.824,203.361 237.691,201.000 237.499 C 199.762 237.398,198.056 237.207,197.208 237.075 C 193.046 236.423,192.257 236.292,190.167 235.903 C 188.166 235.531,183.428 234.628,178.333 233.646 C 176.635 233.319,173.156 232.556,169.750 231.764 C 163.401 230.288,155.522 227.826,149.333 225.385 C 130.795 218.074,120.041 211.433,107.417 199.500 C 98.456 191.031,97.223 190.180,95.330 191.158 " stroke="none" fill="#d20a49" fill-rule="evenodd"></path><path id="path4" d="M106.250 167.180 C 97.975 167.843,87.049 172.880,81.074 178.787 C 74.568 185.219,71.348 197.727,72.888 210.583 C 75.284 230.593,91.797 250.234,118.435 264.759 C 123.185 267.349,131.973 271.494,136.500 273.279 C 137.554 273.695,139.464 274.448,140.744 274.952 C 150.360 278.742,164.714 282.615,174.583 284.081 C 183.615 285.424,183.221 285.387,188.667 285.402 C 194.340 285.418,198.091 285.095,203.250 284.143 C 207.465 283.366,215.024 282.016,217.667 281.569 C 218.996 281.344,221.133 280.978,222.417 280.757 C 226.113 280.119,232.012 279.326,240.417 278.338 C 242.067 278.144,244.242 277.875,245.250 277.741 C 246.258 277.607,248.883 277.274,251.083 277.001 C 253.283 276.729,257.071 276.245,259.500 275.927 C 261.929 275.609,264.817 275.232,265.917 275.088 C 267.770 274.846,275.847 273.433,278.333 272.916 C 278.929 272.792,281.217 272.381,283.417 272.003 C 288.356 271.153,292.775 270.274,297.667 269.167 C 299.729 268.700,302.504 268.092,303.833 267.815 C 309.246 266.687,312.792 265.427,321.000 261.715 C 328.060 258.521,334.514 255.184,338.054 252.894 C 339.028 252.265,340.026 251.637,340.273 251.500 C 340.520 251.362,340.851 251.127,341.008 250.978 C 341.355 250.648,343.337 249.472,343.617 249.430 C 343.727 249.413,343.958 249.272,344.130 249.116 C 344.302 248.961,344.520 248.833,344.614 248.833 C 344.708 248.833,344.973 248.665,345.203 248.458 C 345.433 248.252,345.732 248.008,345.868 247.917 C 347.025 247.139,347.329 246.891,347.331 246.728 C 347.333 246.532,347.962 246.055,348.243 246.036 C 348.332 246.030,348.444 245.920,348.493 245.793 C 348.611 245.490,350.893 243.495,353.464 241.446 C 356.785 238.801,359.698 235.841,362.831 231.927 C 364.376 229.996,366.349 227.641,367.215 226.693 C 371.190 222.343,373.192 215.711,370.719 215.090 C 370.411 215.013,369.948 215.162,369.023 215.635 C 368.323 215.992,366.850 216.568,365.750 216.914 C 364.650 217.259,363.150 217.789,362.417 218.091 C 361.683 218.393,360.483 218.791,359.750 218.976 C 353.567 220.540,350.321 221.353,346.667 222.252 C 339.264 224.074,334.585 225.504,334.717 225.902 C 334.746 225.987,335.402 226.257,336.176 226.503 C 347.199 230.002,352.804 234.297,350.989 237.855 C 345.678 248.264,316.248 260.388,282.250 266.172 C 275.482 267.323,272.418 267.803,268.000 268.403 C 261.963 269.223,261.190 269.306,257.000 269.586 C 254.938 269.723,253.063 269.871,252.833 269.913 C 247.195 270.948,204.846 269.733,191.667 268.158 C 183.304 267.158,178.232 266.240,171.417 264.490 C 169.950 264.114,167.962 263.620,167.000 263.393 C 158.311 261.343,144.798 256.654,137.083 253.013 C 116.321 243.212,99.634 227.214,92.041 209.833 C 86.610 197.398,88.605 188.089,97.240 185.579 C 99.796 184.836,101.799 186.238,107.591 192.826 C 118.364 205.079,125.031 210.252,139.185 217.340 C 154.601 225.060,167.959 229.509,183.417 232.071 C 184.242 232.207,186.792 232.653,189.083 233.060 C 195.892 234.270,203.586 235.047,215.750 235.750 C 218.133 235.888,221.246 236.073,222.667 236.161 C 235.213 236.938,260.659 236.662,268.500 235.662 C 275.296 234.796,278.718 234.319,281.167 233.897 C 282.496 233.667,284.558 233.336,285.750 233.159 C 286.942 232.983,288.554 232.722,289.333 232.578 C 290.112 232.434,291.837 232.131,293.167 231.904 C 295.420 231.520,301.391 230.394,306.417 229.407 C 307.608 229.173,309.746 228.769,311.167 228.509 C 312.587 228.249,315.063 227.729,316.667 227.355 C 318.271 226.980,321.421 226.289,323.667 225.820 C 329.566 224.587,330.029 224.456,339.833 221.227 C 358.365 215.123,360.142 214.414,369.625 209.346 C 376.074 205.898,379.321 203.908,382.853 201.235 C 384.444 200.030,386.697 198.513,387.852 197.868 C 388.183 197.683,388.633 197.431,388.852 197.308 C 389.602 196.886,390.687 195.750,391.212 194.834 C 391.501 194.330,391.910 193.759,392.119 193.565 C 392.329 193.371,392.500 193.137,392.500 193.047 C 392.500 192.956,392.759 192.542,393.075 192.128 C 393.391 191.714,393.701 191.160,393.764 190.896 C 393.827 190.632,393.962 190.304,394.064 190.167 C 394.239 189.932,394.359 189.726,394.794 188.917 C 394.892 188.733,395.212 187.796,395.505 186.833 C 396.116 184.827,396.737 183.500,397.066 183.500 C 397.487 183.500,398.167 181.270,398.167 179.887 C 398.167 178.721,398.114 178.681,397.202 179.153 C 396.409 179.563,395.484 180.540,393.243 183.333 C 388.151 189.679,380.886 195.310,372.167 199.669 C 365.005 203.249,359.930 205.444,350.583 209.001 C 342.468 212.090,327.251 216.478,316.833 218.734 C 308.862 220.461,308.236 220.582,300.000 221.983 C 292.983 223.177,288.384 223.834,284.700 224.169 C 282.711 224.350,280.933 224.532,280.750 224.575 C 280.567 224.617,278.504 224.769,276.167 224.912 C 273.829 225.056,271.054 225.246,270.000 225.334 C 268.001 225.501,257.371 225.910,250.333 226.089 C 245.654 226.209,236.196 225.953,231.667 225.584 C 227.105 225.213,223.215 224.839,222.083 224.664 C 221.533 224.578,219.621 224.322,217.833 224.095 C 200.582 221.902,183.572 217.361,166.056 210.272 C 144.443 201.525,132.773 192.379,124.250 177.506 C 120.241 170.510,118.208 168.336,114.983 167.595 C 114.040 167.378,109.138 166.962,108.253 167.023 C 108.068 167.036,107.167 167.107,106.250 167.180 M121.042 233.290 C 121.660 233.322,122.673 233.322,123.292 233.290 C 123.910 233.258,123.404 233.232,122.167 233.232 C 120.929 233.232,120.423 233.258,121.042 233.290 M338.333 233.241 C 338.333 233.287,338.558 233.441,338.833 233.583 C 339.108 233.726,339.333 233.804,339.333 233.759 C 339.333 233.713,339.108 233.559,338.833 233.417 C 338.558 233.274,338.333 233.196,338.333 233.241 M125.794 233.451 C 126.001 233.491,126.301 233.490,126.460 233.448 C 126.620 233.406,126.450 233.374,126.083 233.375 C 125.717 233.377,125.586 233.411,125.794 233.451 M127.208 233.615 C 127.369 233.657,127.631 233.657,127.792 233.615 C 127.952 233.573,127.821 233.539,127.500 233.539 C 127.179 233.539,127.048 233.573,127.208 233.615 M117.667 236.083 C 117.978 236.404,118.270 236.667,118.315 236.667 C 118.361 236.667,118.144 236.404,117.833 236.083 C 117.522 235.762,117.230 235.500,117.185 235.500 C 117.139 235.500,117.356 235.762,117.667 236.083 M118.500 236.885 C 118.500 236.914,118.744 237.158,119.042 237.427 L 119.583 237.917 119.094 237.375 C 118.638 236.870,118.500 236.757,118.500 236.885 M269.500 240.135 C 269.500 240.210,269.744 240.491,270.042 240.760 L 270.583 241.250 270.111 240.727 C 269.768 240.346,269.700 240.179,269.861 240.115 C 270.010 240.055,269.987 240.022,269.792 240.013 C 269.631 240.006,269.500 240.061,269.500 240.135 M271.250 242.000 C 271.608 242.367,271.938 242.667,271.984 242.667 C 272.030 242.667,271.775 242.367,271.417 242.000 C 271.059 241.633,270.728 241.333,270.682 241.333 C 270.637 241.333,270.892 241.633,271.250 242.000 M276.240 251.042 L 275.750 251.583 276.292 251.094 C 276.797 250.638,276.910 250.500,276.781 250.500 C 276.752 250.500,276.509 250.744,276.240 251.042 M188.410 262.659 C 188.700 262.980,188.683 262.986,187.394 263.042 L 186.083 263.100 187.571 263.133 L 189.058 263.167 188.667 262.750 C 188.208 262.262,187.976 262.180,188.410 262.659 M279.375 264.282 C 279.535 264.323,279.798 264.323,279.958 264.282 C 280.119 264.240,279.987 264.205,279.667 264.205 C 279.346 264.205,279.215 264.240,279.375 264.282 M272.042 265.448 C 272.202 265.490,272.465 265.490,272.625 265.448 C 272.785 265.406,272.654 265.372,272.333 265.372 C 272.012 265.372,271.881 265.406,272.042 265.448 M263.794 266.618 C 264.001 266.658,264.301 266.656,264.460 266.615 C 264.620 266.573,264.450 266.540,264.083 266.542 C 263.717 266.544,263.586 266.578,263.794 266.618 M262.460 266.785 C 262.668 266.824,262.968 266.823,263.127 266.781 C 263.286 266.739,263.117 266.707,262.750 266.709 C 262.383 266.711,262.253 266.745,262.460 266.785 M261.042 266.948 C 261.202 266.990,261.465 266.990,261.625 266.948 C 261.785 266.906,261.654 266.872,261.333 266.872 C 261.012 266.872,260.881 266.906,261.042 266.948 M259.542 267.115 C 259.702 267.157,259.965 267.157,260.125 267.115 C 260.285 267.073,260.154 267.039,259.833 267.039 C 259.512 267.039,259.381 267.073,259.542 267.115 M258.044 267.286 C 258.297 267.325,258.672 267.324,258.877 267.284 C 259.082 267.244,258.875 267.213,258.417 267.214 C 257.958 267.216,257.791 267.248,258.044 267.286 M255.961 267.454 C 256.261 267.491,256.711 267.490,256.961 267.452 C 257.212 267.414,256.967 267.384,256.417 267.385 C 255.867 267.386,255.662 267.417,255.961 267.454 M253.792 267.618 C 253.998 267.657,254.335 267.657,254.542 267.618 C 254.748 267.578,254.579 267.545,254.167 267.545 C 253.754 267.545,253.585 267.578,253.792 267.618 M250.458 267.789 C 250.848 267.824,251.485 267.824,251.875 267.789 C 252.265 267.754,251.946 267.725,251.167 267.725 C 250.387 267.725,250.069 267.754,250.458 267.789 M246.711 267.953 C 246.964 267.991,247.339 267.990,247.544 267.951 C 247.749 267.911,247.542 267.880,247.083 267.881 C 246.625 267.882,246.457 267.915,246.711 267.953 " stroke="none" fill="#955e22" fill-rule="evenodd"></path></g></svg>